<svg width="3503" height="1720" viewBox="0 0 3503 1720" fill="none" xmlns="http://www.w3.org/2000/svg">
<rect width="3503" height="1720" rx="104" fill="#F1EEE9"/>
<path d="M1281.33 569.512H2338.55" stroke="#103EB0" stroke-width="35.0492"/>
<path d="M401.227 497V652.943H368.637V523.803H305.59V652.943H273V497H401.227Z" fill="#103EB0"/>
<path d="M439.05 652.943V497H544.129V524.183H472.02V561.342H538.722V588.525H472.02V625.76H544.433V652.943H439.05Z" fill="#103EB0"/>
<path d="M576.774 652.943V497H638.298C650.126 497 660.202 499.259 668.527 503.777C676.853 508.244 683.198 514.462 687.564 522.432C691.98 530.351 694.188 539.488 694.188 549.844C694.188 560.2 691.955 569.337 687.487 577.256C683.02 585.175 676.548 591.343 668.071 595.759C659.644 600.175 649.441 602.383 637.461 602.383H598.246V575.961H632.131C638.476 575.961 643.705 574.87 647.816 572.687C651.979 570.454 655.075 567.383 657.106 563.474C659.187 559.514 660.228 554.971 660.228 549.844C660.228 544.666 659.187 540.148 657.106 536.29C655.075 532.382 651.979 529.361 647.816 527.229C643.654 525.046 638.374 523.955 631.978 523.955H609.744V652.943H576.774Z" fill="#103EB0"/>
<path d="M722.036 652.943V497H784.474C795.947 497 805.516 498.701 813.181 502.102C820.846 505.503 826.607 510.224 830.465 516.264C834.323 522.254 836.252 529.158 836.252 536.976C836.252 543.067 835.034 548.423 832.598 553.042C830.161 557.611 826.811 561.367 822.546 564.311C818.333 567.205 813.511 569.261 808.079 570.479V572.002C814.018 572.256 819.577 573.931 824.755 577.027C829.983 580.124 834.222 584.464 837.471 590.048C840.72 595.581 842.344 602.18 842.344 609.846C842.344 618.12 840.288 625.506 836.176 632.004C832.115 638.45 826.1 643.552 818.13 647.308C810.16 651.065 800.338 652.943 788.662 652.943H722.036ZM755.007 625.988H781.886C791.074 625.988 797.774 624.237 801.988 620.734C806.201 617.181 808.308 612.46 808.308 606.571C808.308 602.257 807.267 598.449 805.186 595.15C803.104 591.85 800.135 589.261 796.277 587.383C792.47 585.505 787.926 584.566 782.647 584.566H755.007V625.988ZM755.007 562.256H779.449C783.967 562.256 787.977 561.469 791.48 559.895C795.033 558.271 797.825 555.986 799.856 553.042C801.937 550.098 802.977 546.57 802.977 542.458C802.977 536.823 800.972 532.28 796.962 528.828C793.003 525.376 787.368 523.65 780.058 523.65H755.007V562.256Z" fill="#103EB0"/>
<path d="M897.109 652.943H861.778L915.612 497H958.1L1011.86 652.943H976.527L937.465 532.635H936.247L897.109 652.943ZM894.901 591.647H978.355V617.384H894.901V591.647Z" fill="#103EB0"/>
<path d="M1156.76 652.943H1123.86V523.955H1101.63C1095.29 523.955 1090.01 524.894 1085.79 526.772C1081.63 528.6 1078.51 531.29 1076.43 534.844C1074.35 538.397 1073.31 542.763 1073.31 547.94C1073.31 553.067 1074.35 557.357 1076.43 560.809C1078.51 564.261 1081.63 566.85 1085.79 568.575C1089.96 570.301 1095.18 571.164 1101.48 571.164H1137.27V597.663H1096.15C1084.22 597.663 1074.02 595.683 1065.54 591.723C1057.06 587.764 1050.59 582.078 1046.12 574.667C1041.65 567.205 1039.42 558.296 1039.42 547.94C1039.42 537.636 1041.6 528.676 1045.97 521.062C1050.39 513.396 1056.76 507.483 1065.08 503.32C1073.46 499.107 1083.53 497 1095.31 497H1156.76V652.943ZM1072.62 581.977H1108.18L1070.26 652.943H1033.86L1072.62 581.977Z" fill="#103EB0"/>
<path d="M2444.56 652.943V626.445L2448.97 626.064C2454.66 625.607 2459.25 623.45 2462.76 619.592C2466.26 615.683 2468.87 609.465 2470.6 600.937C2472.38 592.358 2473.52 580.835 2474.03 566.367L2476.61 497H2582.46V652.943H2550.4V523.422H2507.22L2504.79 577.713C2503.98 595.175 2501.89 609.439 2498.54 620.506C2495.24 631.572 2489.97 639.745 2482.71 645.024C2475.5 650.303 2465.62 652.943 2453.09 652.943H2444.56Z" fill="#103EB0"/>
<path d="M2616.07 497H2648.97V595.074H2650.26L2717.65 497H2746.51V652.943H2713.54V554.793H2712.39L2644.63 652.943H2616.07V497Z" fill="#103EB0"/>
<path d="M2780.18 652.943V497H2813.15V561.342H2880.08V497H2912.97V652.943H2880.08V588.525H2813.15V652.943H2780.18Z" fill="#103EB0"/>
<path d="M2946.59 497H2979.48V595.074H2980.78L3048.17 497H3077.03V652.943H3044.06V554.793H3042.91L2975.14 652.943H2946.59V497Z" fill="#103EB0"/>
<path d="M3230.4 652.943H3197.5V523.955H3175.27C3168.92 523.955 3163.64 524.894 3159.43 526.772C3155.27 528.6 3152.15 531.29 3150.07 534.844C3147.98 538.397 3146.94 542.763 3146.94 547.94C3146.94 553.067 3147.98 557.357 3150.07 560.809C3152.15 564.261 3155.27 566.85 3159.43 568.575C3163.59 570.301 3168.82 571.164 3175.12 571.164H3210.9V597.663H3169.79C3157.86 597.663 3147.65 595.683 3139.18 591.723C3130.7 587.764 3124.23 582.078 3119.76 574.667C3115.29 567.205 3113.06 558.296 3113.06 547.94C3113.06 537.636 3115.24 528.676 3119.61 521.062C3124.02 513.396 3130.39 507.483 3138.72 503.32C3147.1 499.107 3157.17 497 3168.95 497H3230.4V652.943ZM3146.26 581.977H3181.82L3143.9 652.943H3107.5L3146.26 581.977Z" fill="#103EB0"/>
<path d="M693.709 900.869V810.492H726.806C733.22 810.492 738.53 811.551 742.737 813.669C746.944 815.758 750.092 818.597 752.181 822.186C754.269 825.746 755.314 829.762 755.314 834.234C755.314 837.999 754.622 841.177 753.24 843.766C751.857 846.325 750.004 848.384 747.679 849.944C745.385 851.473 742.855 852.591 740.089 853.298V854.18C743.09 854.327 746.017 855.298 748.871 857.093C751.754 858.858 754.137 861.373 756.02 864.639C757.903 867.904 758.844 871.876 758.844 876.554C758.844 881.172 757.756 885.321 755.579 888.998C753.431 892.646 750.107 895.544 745.605 897.692C741.104 899.81 735.353 900.869 728.351 900.869H693.709ZM707.345 889.175H727.027C733.558 889.175 738.236 887.91 741.06 885.379C743.884 882.849 745.296 879.687 745.296 875.892C745.296 873.038 744.576 870.42 743.134 868.037C741.693 865.654 739.633 863.756 736.956 862.344C734.308 860.932 731.16 860.226 727.512 860.226H707.345V889.175ZM707.345 849.591H725.615C728.674 849.591 731.425 849.002 733.867 847.825C736.338 846.649 738.295 845.001 739.736 842.883C741.207 840.735 741.943 838.205 741.943 835.293C741.943 831.556 740.633 828.423 738.015 825.893C735.397 823.363 731.381 822.098 725.968 822.098H707.345V849.591Z" fill="#103EB0"/>
<path d="M784.373 833.086L799.333 859.476L814.425 833.086H828.855L807.717 866.978L829.032 900.869H814.601L799.333 875.539L784.108 900.869H769.634L790.727 866.978L769.898 833.086H784.373Z" fill="#103EB0"/>
<path d="M868.285 902.237C861.93 902.237 856.384 900.781 851.648 897.868C846.911 894.956 843.234 890.881 840.616 885.644C837.997 880.408 836.688 874.288 836.688 867.286C836.688 860.255 837.997 854.107 840.616 848.84C843.234 843.574 846.911 839.485 851.648 836.573C856.384 833.66 861.93 832.204 868.285 832.204C874.639 832.204 880.185 833.66 884.921 836.573C889.658 839.485 893.335 843.574 895.954 848.84C898.572 854.107 899.881 860.255 899.881 867.286C899.881 874.288 898.572 880.408 895.954 885.644C893.335 890.881 889.658 894.956 884.921 897.868C880.185 900.781 874.639 902.237 868.285 902.237ZM868.329 891.16C872.447 891.16 875.86 890.072 878.567 887.895C881.273 885.718 883.274 882.82 884.568 879.201C885.892 875.583 886.554 871.596 886.554 867.242C886.554 862.918 885.892 858.946 884.568 855.327C883.274 851.679 881.273 848.752 878.567 846.546C875.86 844.339 872.447 843.236 868.329 843.236C864.181 843.236 860.739 844.339 858.003 846.546C855.296 848.752 853.281 851.679 851.957 855.327C850.662 858.946 850.015 862.918 850.015 867.242C850.015 871.596 850.662 875.583 851.957 879.201C853.281 882.82 855.296 885.718 858.003 887.895C860.739 890.072 864.181 891.16 868.329 891.16Z" fill="#103EB0"/>
<path d="M907.99 920.418V889.439H913.506C914.918 888.145 916.11 886.6 917.081 884.806C918.081 883.011 918.919 880.878 919.596 878.407C920.302 875.936 920.89 873.053 921.361 869.758C921.832 866.433 922.244 862.638 922.597 858.372L924.715 833.086H970.786V889.439H981.2V920.418H968.315V900.869H921.052V920.418H907.99ZM927.627 889.439H957.9V844.383H936.542L935.129 858.372C934.453 865.492 933.6 871.67 932.57 876.907C931.54 882.114 929.893 886.291 927.627 889.439Z" fill="#103EB0"/>
<path d="M1055.54 902.237C1048.98 902.237 1043.33 900.751 1038.59 897.78C1033.88 894.779 1030.26 890.646 1027.73 885.379C1025.2 880.113 1023.94 874.082 1023.94 867.286C1023.94 860.402 1025.23 854.327 1027.82 849.061C1030.41 843.766 1034.06 839.632 1038.77 836.661C1043.47 833.689 1049.02 832.204 1055.4 832.204C1060.55 832.204 1065.14 833.16 1069.17 835.072C1073.2 836.955 1076.45 839.603 1078.92 843.015C1081.43 846.428 1082.91 850.414 1083.38 854.974H1070.54C1069.83 851.797 1068.22 849.061 1065.69 846.766C1063.19 844.472 1059.83 843.324 1055.62 843.324C1051.95 843.324 1048.73 844.295 1045.96 846.237C1043.22 848.149 1041.09 850.885 1039.56 854.445C1038.03 857.975 1037.27 862.153 1037.27 866.978C1037.27 871.92 1038.02 876.186 1039.52 879.775C1041.02 883.364 1043.14 886.144 1045.87 888.115C1048.64 890.087 1051.89 891.072 1055.62 891.072C1058.12 891.072 1060.39 890.616 1062.42 889.704C1064.48 888.763 1066.2 887.424 1067.58 885.688C1069 883.953 1069.98 881.864 1070.54 879.422H1083.38C1082.91 883.806 1081.48 887.718 1079.1 891.16C1076.72 894.602 1073.53 897.309 1069.53 899.28C1065.55 901.251 1060.89 902.237 1055.54 902.237Z" fill="#103EB0"/>
<path d="M1150.1 902.369C1145.81 902.369 1141.93 901.575 1138.45 899.986C1134.98 898.368 1132.23 896.029 1130.2 892.97C1128.2 889.91 1127.2 886.159 1127.2 881.717C1127.2 877.892 1127.94 874.744 1129.41 872.273C1130.88 869.802 1132.87 867.845 1135.37 866.404C1137.87 864.962 1140.66 863.874 1143.75 863.138C1146.84 862.403 1149.99 861.844 1153.19 861.461C1157.25 860.991 1160.55 860.608 1163.08 860.314C1165.61 859.99 1167.45 859.476 1168.6 858.77C1169.74 858.063 1170.32 856.916 1170.32 855.327V855.019C1170.32 851.165 1169.23 848.179 1167.05 846.06C1164.9 843.942 1161.7 842.883 1157.43 842.883C1152.99 842.883 1149.49 843.869 1146.93 845.84C1144.4 847.781 1142.65 849.944 1141.68 852.327L1129.28 849.502C1130.75 845.384 1132.89 842.059 1135.72 839.529C1138.57 836.97 1141.85 835.116 1145.56 833.969C1149.27 832.792 1153.16 832.204 1157.25 832.204C1159.96 832.204 1162.83 832.527 1165.86 833.175C1168.92 833.792 1171.77 834.94 1174.42 836.617C1177.1 838.294 1179.29 840.691 1181 843.81C1182.7 846.899 1183.55 850.915 1183.55 855.857V900.869H1170.67V891.602H1170.14C1169.29 893.308 1168.01 894.985 1166.3 896.632C1164.59 898.28 1162.4 899.648 1159.73 900.736C1157.05 901.825 1153.84 902.369 1150.1 902.369ZM1152.97 891.778C1156.62 891.778 1159.74 891.057 1162.33 889.616C1164.95 888.174 1166.93 886.291 1168.29 883.967C1169.67 881.614 1170.36 879.098 1170.36 876.421V867.684C1169.89 868.154 1168.98 868.596 1167.62 869.008C1166.3 869.39 1164.79 869.728 1163.08 870.022C1161.37 870.287 1159.71 870.537 1158.09 870.773C1156.47 870.979 1155.12 871.155 1154.03 871.302C1151.47 871.626 1149.13 872.17 1147.02 872.935C1144.93 873.7 1143.25 874.803 1141.99 876.245C1140.75 877.657 1140.13 879.54 1140.13 881.893C1140.13 885.159 1141.34 887.63 1143.75 889.307C1146.16 890.954 1149.24 891.778 1152.97 891.778Z" fill="#103EB0"/>
<path d="M1194.51 920.418V889.439H1200.03C1201.44 888.145 1202.63 886.6 1203.6 884.806C1204.6 883.011 1205.44 880.878 1206.12 878.407C1206.82 875.936 1207.41 873.053 1207.88 869.758C1208.35 866.433 1208.76 862.638 1209.12 858.372L1211.24 833.086H1257.31V889.439H1267.72V920.418H1254.83V900.869H1207.57V920.418H1194.51ZM1214.15 889.439H1244.42V844.383H1223.06L1221.65 858.372C1220.97 865.492 1220.12 871.67 1219.09 876.907C1218.06 882.114 1216.41 886.291 1214.15 889.439Z" fill="#103EB0"/>
<path d="M1280.62 926.287V833.086H1293.5V844.074H1294.61C1295.37 842.662 1296.47 841.03 1297.92 839.176C1299.36 837.323 1301.36 835.705 1303.92 834.322C1306.48 832.91 1309.86 832.204 1314.07 832.204C1319.54 832.204 1324.42 833.586 1328.72 836.352C1333.01 839.117 1336.38 843.104 1338.82 848.311C1341.29 853.518 1342.53 859.784 1342.53 867.11C1342.53 874.435 1341.31 880.716 1338.87 885.953C1336.43 891.16 1333.07 895.176 1328.81 898C1324.54 900.795 1319.67 902.193 1314.2 902.193C1310.08 902.193 1306.71 901.501 1304.09 900.119C1301.51 898.736 1299.48 897.118 1298 895.264C1296.53 893.411 1295.4 891.763 1294.61 890.322H1293.81V926.287H1280.62ZM1293.55 866.978C1293.55 871.744 1294.24 875.921 1295.62 879.51C1297 883.099 1299 885.909 1301.62 887.939C1304.24 889.939 1307.45 890.94 1311.24 890.94C1315.19 890.94 1318.48 889.895 1321.13 887.807C1323.78 885.688 1325.78 882.82 1327.13 879.201C1328.51 875.583 1329.2 871.508 1329.2 866.978C1329.2 862.506 1328.53 858.49 1327.17 854.93C1325.85 851.371 1323.85 848.561 1321.17 846.502C1318.52 844.442 1315.21 843.413 1311.24 843.413C1307.42 843.413 1304.18 844.398 1301.53 846.369C1298.92 848.34 1296.93 851.091 1295.58 854.621C1294.22 858.152 1293.55 862.27 1293.55 866.978Z" fill="#103EB0"/>
<path d="M1386.53 902.237C1379.85 902.237 1374.1 900.81 1369.27 897.956C1364.48 895.073 1360.77 891.028 1358.15 885.821C1355.56 880.584 1354.27 874.45 1354.27 867.419C1354.27 860.476 1355.56 854.357 1358.15 849.061C1360.77 843.766 1364.42 839.632 1369.1 836.661C1373.8 833.689 1379.3 832.204 1385.6 832.204C1389.43 832.204 1393.13 832.836 1396.72 834.101C1400.31 835.366 1403.53 837.352 1406.39 840.059C1409.24 842.765 1411.49 846.281 1413.14 850.606C1414.78 854.901 1415.61 860.123 1415.61 866.271V870.949H1361.73V861.064H1402.68C1402.68 857.593 1401.97 854.518 1400.56 851.841C1399.15 849.135 1397.16 847.002 1394.6 845.442C1392.07 843.883 1389.1 843.104 1385.69 843.104C1381.98 843.104 1378.75 844.016 1375.98 845.84C1373.24 847.634 1371.13 849.988 1369.63 852.9C1368.15 855.783 1367.42 858.917 1367.42 862.3V870.022C1367.42 874.553 1368.21 878.407 1369.8 881.584C1371.42 884.762 1373.67 887.189 1376.55 888.866C1379.44 890.513 1382.81 891.337 1386.66 891.337C1389.16 891.337 1391.44 890.984 1393.5 890.278C1395.56 889.542 1397.34 888.454 1398.84 887.012C1400.34 885.571 1401.49 883.791 1402.28 881.673L1414.77 883.923C1413.77 887.601 1411.98 890.822 1409.39 893.588C1406.83 896.324 1403.61 898.456 1399.72 899.986C1395.87 901.487 1391.47 902.237 1386.53 902.237Z" fill="#103EB0"/>
<path d="M1458.8 902.237C1452.24 902.237 1446.59 900.751 1441.85 897.78C1437.15 894.779 1433.53 890.646 1431 885.379C1428.47 880.113 1427.2 874.082 1427.2 867.286C1427.2 860.402 1428.5 854.327 1431.09 849.061C1433.68 843.766 1437.32 839.632 1442.03 836.661C1446.74 833.689 1452.28 832.204 1458.67 832.204C1463.82 832.204 1468.41 833.16 1472.44 835.072C1476.47 836.955 1479.72 839.603 1482.19 843.015C1484.69 846.428 1486.17 850.414 1486.65 854.974H1473.8C1473.1 851.797 1471.48 849.061 1468.95 846.766C1466.45 844.472 1463.1 843.324 1458.89 843.324C1455.21 843.324 1451.99 844.295 1449.22 846.237C1446.49 848.149 1444.36 850.885 1442.83 854.445C1441.3 857.975 1440.53 862.153 1440.53 866.978C1440.53 871.92 1441.28 876.186 1442.78 879.775C1444.28 883.364 1446.4 886.144 1449.14 888.115C1451.9 890.087 1455.15 891.072 1458.89 891.072C1461.39 891.072 1463.65 890.616 1465.68 889.704C1467.74 888.763 1469.46 887.424 1470.85 885.688C1472.26 883.953 1473.25 881.864 1473.8 879.422H1486.65C1486.17 883.806 1484.75 887.718 1482.37 891.16C1479.98 894.602 1476.79 897.309 1472.79 899.28C1468.82 901.251 1464.15 902.237 1458.8 902.237Z" fill="#103EB0"/>
<path d="M1520.48 902.369C1516.19 902.369 1512.3 901.575 1508.83 899.986C1505.36 898.368 1502.61 896.029 1500.58 892.97C1498.58 889.91 1497.58 886.159 1497.58 881.717C1497.58 877.892 1498.31 874.744 1499.79 872.273C1501.26 869.802 1503.24 867.845 1505.74 866.404C1508.24 864.962 1511.04 863.874 1514.13 863.138C1517.22 862.403 1520.36 861.844 1523.57 861.461C1527.63 860.991 1530.93 860.608 1533.46 860.314C1535.99 859.99 1537.82 859.476 1538.97 858.77C1540.12 858.063 1540.69 856.916 1540.69 855.327V855.019C1540.69 851.165 1539.6 848.179 1537.43 846.06C1535.28 843.942 1532.07 842.883 1527.81 842.883C1523.36 842.883 1519.86 843.869 1517.3 845.84C1514.77 847.781 1513.02 849.944 1512.05 852.327L1499.65 849.502C1501.12 845.384 1503.27 842.059 1506.1 839.529C1508.95 836.97 1512.23 835.116 1515.94 833.969C1519.64 832.792 1523.54 832.204 1527.63 832.204C1530.34 832.204 1533.21 832.527 1536.24 833.175C1539.3 833.792 1542.15 834.94 1544.8 836.617C1547.47 838.294 1549.67 840.691 1551.37 843.81C1553.08 846.899 1553.93 850.915 1553.93 855.857V900.869H1541.05V891.602H1540.52C1539.66 893.308 1538.38 894.985 1536.68 896.632C1534.97 898.28 1532.78 899.648 1530.1 900.736C1527.42 901.825 1524.22 902.369 1520.48 902.369ZM1523.35 891.778C1527 891.778 1530.12 891.057 1532.71 889.616C1535.32 888.174 1537.31 886.291 1538.66 883.967C1540.05 881.614 1540.74 879.098 1540.74 876.421V867.684C1540.27 868.154 1539.35 868.596 1538 869.008C1536.68 869.39 1535.16 869.728 1533.46 870.022C1531.75 870.287 1530.09 870.537 1528.47 870.773C1526.85 870.979 1525.5 871.155 1524.41 871.302C1521.85 871.626 1519.51 872.17 1517.39 872.935C1515.3 873.7 1513.63 874.803 1512.36 876.245C1511.13 877.657 1510.51 879.54 1510.51 881.893C1510.51 885.159 1511.71 887.63 1514.13 889.307C1516.54 890.954 1519.61 891.778 1523.35 891.778Z" fill="#103EB0"/>
<path d="M1624.12 902.369C1619.82 902.369 1615.94 901.575 1612.47 899.986C1609 898.368 1606.25 896.029 1604.22 892.97C1602.22 889.91 1601.22 886.159 1601.22 881.717C1601.22 877.892 1601.95 874.744 1603.42 872.273C1604.89 869.802 1606.88 867.845 1609.38 866.404C1611.88 864.962 1614.68 863.874 1617.76 863.138C1620.85 862.403 1624 861.844 1627.21 861.461C1631.27 860.991 1634.56 860.608 1637.09 860.314C1639.62 859.99 1641.46 859.476 1642.61 858.77C1643.76 858.063 1644.33 856.916 1644.33 855.327V855.019C1644.33 851.165 1643.24 848.179 1641.06 846.06C1638.92 843.942 1635.71 842.883 1631.44 842.883C1627 842.883 1623.5 843.869 1620.94 845.84C1618.41 847.781 1616.66 849.944 1615.69 852.327L1603.29 849.502C1604.76 845.384 1606.91 842.059 1609.73 839.529C1612.59 836.97 1615.87 835.116 1619.57 833.969C1623.28 832.792 1627.18 832.204 1631.27 832.204C1633.97 832.204 1636.84 832.527 1639.87 833.175C1642.93 833.792 1645.79 834.94 1648.43 836.617C1651.11 838.294 1653.3 840.691 1655.01 843.81C1656.72 846.899 1657.57 850.915 1657.57 855.857V900.869H1644.68V891.602H1644.15C1643.3 893.308 1642.02 894.985 1640.31 896.632C1638.61 898.28 1636.42 899.648 1633.74 900.736C1631.06 901.825 1627.86 902.369 1624.12 902.369ZM1626.99 891.778C1630.64 891.778 1633.75 891.057 1636.34 889.616C1638.96 888.174 1640.95 886.291 1642.3 883.967C1643.68 881.614 1644.37 879.098 1644.37 876.421V867.684C1643.9 868.154 1642.99 868.596 1641.64 869.008C1640.31 869.39 1638.8 869.728 1637.09 870.022C1635.39 870.287 1633.72 870.537 1632.11 870.773C1630.49 870.979 1629.14 871.155 1628.05 871.302C1625.49 871.626 1623.15 872.17 1621.03 872.935C1618.94 873.7 1617.26 874.803 1616 876.245C1614.76 877.657 1614.15 879.54 1614.15 881.893C1614.15 885.159 1615.35 887.63 1617.76 889.307C1620.18 890.954 1623.25 891.778 1626.99 891.778Z" fill="#103EB0"/>
<path d="M1700.52 902.193C1695.05 902.193 1690.16 900.795 1685.87 898C1681.6 895.176 1678.25 891.16 1675.81 885.953C1673.39 880.716 1672.19 874.435 1672.19 867.11C1672.19 859.784 1673.41 853.518 1675.85 848.311C1678.32 843.104 1681.7 839.117 1686 836.352C1690.29 833.586 1695.16 832.204 1700.61 832.204C1704.81 832.204 1708.2 832.91 1710.76 834.322C1713.35 835.705 1715.35 837.323 1716.76 839.176C1718.2 841.03 1719.32 842.662 1720.11 844.074H1720.91V810.492H1734.1V900.869H1721.21V890.322H1720.11C1719.32 891.763 1718.17 893.411 1716.67 895.264C1715.2 897.118 1713.17 898.736 1710.58 900.119C1707.99 901.501 1704.64 902.193 1700.52 902.193ZM1703.43 890.94C1707.23 890.94 1710.43 889.939 1713.05 887.939C1715.7 885.909 1717.7 883.099 1719.05 879.51C1720.44 875.921 1721.13 871.744 1721.13 866.978C1721.13 862.27 1720.45 858.152 1719.1 854.621C1717.74 851.091 1715.76 848.34 1713.14 846.369C1710.52 844.398 1707.28 843.413 1703.43 843.413C1699.46 843.413 1696.15 844.442 1693.5 846.502C1690.85 848.561 1688.85 851.371 1687.5 854.93C1686.18 858.49 1685.51 862.506 1685.51 866.978C1685.51 871.508 1686.19 875.583 1687.54 879.201C1688.9 882.82 1690.9 885.688 1693.55 887.807C1696.22 889.895 1699.52 890.94 1703.43 890.94Z" fill="#103EB0"/>
<path d="M1752.93 900.869V833.086H1765.6V844.119H1766.44C1767.85 840.382 1770.16 837.47 1773.36 835.381C1776.57 833.263 1780.41 832.204 1784.88 832.204C1789.41 832.204 1793.21 833.263 1796.27 835.381C1799.36 837.499 1801.64 840.412 1803.11 844.119H1803.81C1805.43 840.5 1808.01 837.617 1811.54 835.469C1815.07 833.292 1819.27 832.204 1824.16 832.204C1830.31 832.204 1835.32 834.131 1839.21 837.985C1843.12 841.839 1845.07 847.649 1845.07 855.416V900.869H1831.88V856.651C1831.88 852.062 1830.63 848.737 1828.13 846.678C1825.63 844.619 1822.64 843.589 1819.17 843.589C1814.88 843.589 1811.54 844.913 1809.15 847.561C1806.77 850.179 1805.58 853.548 1805.58 857.666V900.869H1792.43V855.813C1792.43 852.135 1791.28 849.179 1788.99 846.943C1786.69 844.707 1783.71 843.589 1780.03 843.589C1777.53 843.589 1775.22 844.251 1773.1 845.575C1771.01 846.869 1769.32 848.679 1768.02 851.003C1766.76 853.327 1766.13 856.019 1766.13 859.078V900.869H1752.93Z" fill="#103EB0"/>
<path d="M1871.45 901.707C1869.04 901.707 1866.97 900.854 1865.23 899.148C1863.49 897.412 1862.63 895.323 1862.63 892.881C1862.63 890.469 1863.49 888.41 1865.23 886.703C1866.97 884.968 1869.04 884.1 1871.45 884.1C1873.87 884.1 1875.94 884.968 1877.67 886.703C1879.41 888.41 1880.28 890.469 1880.28 892.881C1880.28 894.5 1879.87 895.985 1879.04 897.338C1878.25 898.662 1877.19 899.721 1875.87 900.516C1874.54 901.31 1873.07 901.707 1871.45 901.707Z" fill="#103EB0"/>
<path d="M1911.15 860.623V900.869H1897.95V810.492H1910.97V844.119H1911.81C1913.4 840.471 1915.82 837.573 1919.09 835.425C1922.36 833.278 1926.62 832.204 1931.89 832.204C1936.54 832.204 1940.6 833.16 1944.07 835.072C1947.57 836.984 1950.27 839.838 1952.19 843.633C1954.13 847.399 1955.1 852.106 1955.1 857.755V900.869H1941.9V859.343C1941.9 854.371 1940.63 850.517 1938.07 847.781C1935.51 845.016 1931.95 843.633 1927.39 843.633C1924.27 843.633 1921.47 844.295 1919 845.619C1916.56 846.943 1914.63 848.885 1913.22 851.444C1911.84 853.974 1911.15 857.034 1911.15 860.623Z" fill="#103EB0"/>
<path d="M2001.92 902.237C1995.24 902.237 1989.49 900.81 1984.67 897.956C1979.87 895.073 1976.16 891.028 1973.55 885.821C1970.96 880.584 1969.66 874.45 1969.66 867.419C1969.66 860.476 1970.96 854.357 1973.55 849.061C1976.16 843.766 1979.81 839.632 1984.49 836.661C1989.2 833.689 1994.7 832.204 2000.99 832.204C2004.82 832.204 2008.53 832.836 2012.11 834.101C2015.7 835.366 2018.93 837.352 2021.78 840.059C2024.63 842.765 2026.88 846.281 2028.53 850.606C2030.18 854.901 2031 860.123 2031 866.271V870.949H1977.12V861.064H2018.07C2018.07 857.593 2017.37 854.518 2015.95 851.841C2014.54 849.135 2012.56 847.002 2010 845.442C2007.47 843.883 2004.49 843.104 2001.08 843.104C1997.38 843.104 1994.14 844.016 1991.37 845.84C1988.64 847.634 1986.52 849.988 1985.02 852.9C1983.55 855.783 1982.81 858.917 1982.81 862.3V870.022C1982.81 874.553 1983.61 878.407 1985.2 881.584C1986.81 884.762 1989.06 887.189 1991.95 888.866C1994.83 890.513 1998.2 891.337 2002.05 891.337C2004.55 891.337 2006.83 890.984 2008.89 890.278C2010.95 889.542 2012.73 888.454 2014.23 887.012C2015.73 885.571 2016.88 883.791 2017.67 881.673L2030.16 883.923C2029.16 887.601 2027.37 890.822 2024.78 893.588C2022.22 896.324 2019 898.456 2015.12 899.986C2011.26 901.487 2006.86 902.237 2001.92 902.237Z" fill="#103EB0"/>
<path d="M2058.84 810.492V900.869H2045.64V810.492H2058.84Z" fill="#103EB0"/>
<path d="M2076.59 926.287V833.086H2089.47V844.074H2090.58C2091.34 842.662 2092.44 841.03 2093.89 839.176C2095.33 837.323 2097.33 835.705 2099.89 834.322C2102.45 832.91 2105.83 832.204 2110.04 832.204C2115.51 832.204 2120.39 833.586 2124.69 836.352C2128.98 839.117 2132.35 843.104 2134.79 848.311C2137.27 853.518 2138.5 859.784 2138.5 867.11C2138.5 874.435 2137.28 880.716 2134.84 885.953C2132.4 891.16 2129.04 895.176 2124.78 898C2120.51 900.795 2115.64 902.193 2110.17 902.193C2106.05 902.193 2102.68 901.501 2100.06 900.119C2097.48 898.736 2095.45 897.118 2093.97 895.264C2092.5 893.411 2091.37 891.763 2090.58 890.322H2089.78V926.287H2076.59ZM2089.52 866.978C2089.52 871.744 2090.21 875.921 2091.59 879.51C2092.97 883.099 2094.97 885.909 2097.59 887.939C2100.21 889.939 2103.42 890.94 2107.21 890.94C2111.16 890.94 2114.45 889.895 2117.1 887.807C2119.75 885.688 2121.75 882.82 2123.1 879.201C2124.48 875.583 2125.17 871.508 2125.17 866.978C2125.17 862.506 2124.5 858.49 2123.14 854.93C2121.82 851.371 2119.82 848.561 2117.14 846.502C2114.49 844.442 2111.18 843.413 2107.21 843.413C2103.39 843.413 2100.15 844.398 2097.5 846.369C2094.89 848.34 2092.9 851.091 2091.55 854.621C2090.19 858.152 2089.52 862.27 2089.52 866.978Z" fill="#103EB0"/>
<path d="M2178.66 902.193C2173.19 902.193 2168.3 900.795 2164.01 898C2159.74 895.176 2156.39 891.16 2153.95 885.953C2151.53 880.716 2150.33 874.435 2150.33 867.11C2150.33 859.784 2151.55 853.518 2153.99 848.311C2156.46 843.104 2159.84 839.117 2164.14 836.352C2168.44 833.586 2173.3 832.204 2178.75 832.204C2182.95 832.204 2186.34 832.91 2188.9 834.322C2191.49 835.705 2193.49 837.323 2194.9 839.176C2196.34 841.03 2197.46 842.662 2198.25 844.074H2199.05V810.492H2212.24V900.869H2199.36V890.322H2198.25C2197.46 891.763 2196.31 893.411 2194.81 895.264C2193.34 897.118 2191.31 898.736 2188.72 900.119C2186.13 901.501 2182.78 902.193 2178.66 902.193ZM2181.57 890.94C2185.37 890.94 2188.57 889.939 2191.19 887.939C2193.84 885.909 2195.84 883.099 2197.19 879.51C2198.58 875.921 2199.27 871.744 2199.27 866.978C2199.27 862.27 2198.59 858.152 2197.24 854.621C2195.88 851.091 2193.9 848.34 2191.28 846.369C2188.66 844.398 2185.42 843.413 2181.57 843.413C2177.6 843.413 2174.29 844.442 2171.64 846.502C2168.99 848.561 2166.99 851.371 2165.64 854.93C2164.32 858.49 2163.65 862.506 2163.65 866.978C2163.65 871.508 2164.33 875.583 2165.68 879.201C2167.04 882.82 2169.04 885.688 2171.69 887.807C2174.36 889.895 2177.66 890.94 2181.57 890.94Z" fill="#103EB0"/>
<path d="M2260.29 902.237C2253.61 902.237 2247.86 900.81 2243.03 897.956C2238.24 895.073 2234.53 891.028 2231.91 885.821C2229.32 880.584 2228.03 874.45 2228.03 867.419C2228.03 860.476 2229.32 854.357 2231.91 849.061C2234.53 843.766 2238.18 839.632 2242.86 836.661C2247.56 833.689 2253.06 832.204 2259.36 832.204C2263.18 832.204 2266.89 832.836 2270.48 834.101C2274.07 835.366 2277.29 837.352 2280.14 840.059C2283 842.765 2285.25 846.281 2286.9 850.606C2288.54 854.901 2289.37 860.123 2289.37 866.271V870.949H2235.49V861.064H2276.44C2276.44 857.593 2275.73 854.518 2274.32 851.841C2272.91 849.135 2270.92 847.002 2268.36 845.442C2265.83 843.883 2262.86 843.104 2259.45 843.104C2255.74 843.104 2252.51 844.016 2249.74 845.84C2247 847.634 2244.89 849.988 2243.39 852.9C2241.91 855.783 2241.18 858.917 2241.18 862.3V870.022C2241.18 874.553 2241.97 878.407 2243.56 881.584C2245.18 884.762 2247.43 887.189 2250.31 888.866C2253.2 890.513 2256.56 891.337 2260.42 891.337C2262.92 891.337 2265.2 890.984 2267.26 890.278C2269.32 889.542 2271.1 888.454 2272.6 887.012C2274.1 885.571 2275.25 883.791 2276.04 881.673L2288.53 883.923C2287.53 887.601 2285.73 890.822 2283.15 893.588C2280.59 896.324 2277.36 898.456 2273.48 899.986C2269.63 901.487 2265.23 902.237 2260.29 902.237Z" fill="#103EB0"/>
<path d="M2354.8 849.635L2342.84 851.753C2342.34 850.223 2341.55 848.767 2340.46 847.384C2339.4 846.001 2337.96 844.869 2336.13 843.986C2334.31 843.104 2332.03 842.662 2329.29 842.662C2325.56 842.662 2322.44 843.501 2319.94 845.178C2317.44 846.825 2316.19 848.958 2316.19 851.576C2316.19 853.842 2317.03 855.666 2318.7 857.048C2320.38 858.431 2323.09 859.564 2326.82 860.446L2337.59 862.918C2343.83 864.359 2348.48 866.58 2351.53 869.581C2354.59 872.582 2356.12 876.48 2356.12 881.275C2356.12 885.335 2354.95 888.954 2352.59 892.131C2350.27 895.279 2347.02 897.75 2342.84 899.545C2338.69 901.34 2333.88 902.237 2328.41 902.237C2320.82 902.237 2314.63 900.619 2309.83 897.383C2305.04 894.117 2302.1 889.483 2301.01 883.482L2313.76 881.54C2314.55 884.865 2316.19 887.38 2318.66 889.086C2321.13 890.763 2324.35 891.602 2328.32 891.602C2332.65 891.602 2336.1 890.704 2338.69 888.91C2341.28 887.086 2342.58 884.865 2342.58 882.246C2342.58 880.128 2341.78 878.348 2340.19 876.907C2338.63 875.465 2336.24 874.377 2333 873.641L2321.53 871.126C2315.2 869.684 2310.52 867.389 2307.49 864.242C2304.49 861.094 2302.99 857.107 2302.99 852.283C2302.99 848.281 2304.11 844.781 2306.35 841.78C2308.58 838.779 2311.67 836.44 2315.61 834.763C2319.56 833.057 2324.07 832.204 2329.16 832.204C2336.49 832.204 2342.25 833.792 2346.46 836.97C2350.67 840.118 2353.45 844.339 2354.8 849.635Z" fill="#103EB0"/>
<path d="M2382.77 877.877L2382.68 861.77H2384.97L2411.98 833.086H2427.78L2396.98 865.742H2394.9L2382.77 877.877ZM2370.63 900.869V810.492H2383.83V900.869H2370.63ZM2413.44 900.869L2389.17 868.654L2398.26 859.431L2429.63 900.869H2413.44Z" fill="#103EB0"/>
<path d="M2448.5 901.707C2446.09 901.707 2444.01 900.854 2442.28 899.148C2440.54 897.412 2439.67 895.323 2439.67 892.881C2439.67 890.469 2440.54 888.41 2442.28 886.703C2444.01 884.968 2446.09 884.1 2448.5 884.1C2450.91 884.1 2452.98 884.968 2454.72 886.703C2456.46 888.41 2457.32 890.469 2457.32 892.881C2457.32 894.5 2456.91 895.985 2456.09 897.338C2455.29 898.662 2454.23 899.721 2452.91 900.516C2451.59 901.31 2450.12 901.707 2448.5 901.707Z" fill="#103EB0"/>
<path d="M2475 900.869V833.086H2487.66V844.119H2488.5C2489.91 840.382 2492.22 837.47 2495.43 835.381C2498.64 833.263 2502.48 832.204 2506.95 832.204C2511.48 832.204 2515.27 833.263 2518.33 835.381C2521.42 837.499 2523.7 840.412 2525.17 844.119H2525.88C2527.5 840.5 2530.07 837.617 2533.6 835.469C2537.13 833.292 2541.34 832.204 2546.22 832.204C2552.37 832.204 2557.39 834.131 2561.27 837.985C2565.18 841.839 2567.14 847.649 2567.14 855.416V900.869H2553.94V856.651C2553.94 852.062 2552.69 848.737 2550.19 846.678C2547.69 844.619 2544.71 843.589 2541.24 843.589C2536.94 843.589 2533.6 844.913 2531.22 847.561C2528.83 850.179 2527.64 853.548 2527.64 857.666V900.869H2514.49V855.813C2514.49 852.135 2513.35 849.179 2511.05 846.943C2508.76 844.707 2505.77 843.589 2502.09 843.589C2499.59 843.589 2497.28 844.251 2495.16 845.575C2493.08 846.869 2491.38 848.679 2490.09 851.003C2488.82 853.327 2488.19 856.019 2488.19 859.078V900.869H2475Z" fill="#103EB0"/>
<path d="M2614.04 902.237C2607.36 902.237 2601.61 900.81 2596.78 897.956C2591.99 895.073 2588.28 891.028 2585.66 885.821C2583.07 880.584 2581.78 874.45 2581.78 867.419C2581.78 860.476 2583.07 854.357 2585.66 849.061C2588.28 843.766 2591.93 839.632 2596.61 836.661C2601.31 833.689 2606.81 832.204 2613.11 832.204C2616.94 832.204 2620.64 832.836 2624.23 834.101C2627.82 835.366 2631.04 837.352 2633.9 840.059C2636.75 842.765 2639 846.281 2640.65 850.606C2642.29 854.901 2643.12 860.123 2643.12 866.271V870.949H2589.24V861.064H2630.19C2630.19 857.593 2629.48 854.518 2628.07 851.841C2626.66 849.135 2624.67 847.002 2622.11 845.442C2619.58 843.883 2616.61 843.104 2613.2 843.104C2609.49 843.104 2606.26 844.016 2603.49 845.84C2600.75 847.634 2598.64 849.988 2597.14 852.9C2595.66 855.783 2594.93 858.917 2594.93 862.3V870.022C2594.93 874.553 2595.72 878.407 2597.31 881.584C2598.93 884.762 2601.18 887.189 2604.06 888.866C2606.95 890.513 2610.32 891.337 2614.17 891.337C2616.67 891.337 2618.95 890.984 2621.01 890.278C2623.07 889.542 2624.85 888.454 2626.35 887.012C2627.85 885.571 2629 883.791 2629.79 881.673L2642.28 883.923C2641.28 887.601 2639.49 890.822 2636.9 893.588C2634.34 896.324 2631.12 898.456 2627.23 899.986C2623.38 901.487 2618.98 902.237 2614.04 902.237Z" fill="#103EB0"/>
<path d="M2683.13 902.193C2677.66 902.193 2672.78 900.795 2668.48 898C2664.22 895.176 2660.86 891.16 2658.42 885.953C2656.01 880.716 2654.8 874.435 2654.8 867.11C2654.8 859.784 2656.02 853.518 2658.46 848.311C2660.94 843.104 2664.32 839.117 2668.61 836.352C2672.91 833.586 2677.78 832.204 2683.22 832.204C2687.43 832.204 2690.81 832.91 2693.37 834.322C2695.96 835.705 2697.96 837.323 2699.37 839.176C2700.81 841.03 2701.93 842.662 2702.73 844.074H2703.52V810.492H2716.72V900.869H2703.83V890.322H2702.73C2701.93 891.763 2700.78 893.411 2699.28 895.264C2697.81 897.118 2695.78 898.736 2693.19 900.119C2690.61 901.501 2687.25 902.193 2683.13 902.193ZM2686.05 890.94C2689.84 890.94 2693.05 889.939 2695.67 887.939C2698.31 885.909 2700.31 883.099 2701.67 879.51C2703.05 875.921 2703.74 871.744 2703.74 866.978C2703.74 862.27 2703.06 858.152 2701.71 854.621C2700.36 851.091 2698.37 848.34 2695.75 846.369C2693.14 844.398 2689.9 843.413 2686.05 843.413C2682.07 843.413 2678.76 844.442 2676.12 846.502C2673.47 848.561 2671.47 851.371 2670.11 854.93C2668.79 858.49 2668.13 862.506 2668.13 866.978C2668.13 871.508 2668.81 875.583 2670.16 879.201C2671.51 882.82 2673.51 885.688 2676.16 887.807C2678.84 889.895 2682.13 890.94 2686.05 890.94Z" fill="#103EB0"/>
<path d="M2735.55 900.869V833.086H2748.74V900.869H2735.55ZM2742.21 822.628C2739.92 822.628 2737.94 821.863 2736.3 820.333C2734.68 818.774 2733.87 816.92 2733.87 814.773C2733.87 812.596 2734.68 810.742 2736.3 809.212C2737.94 807.653 2739.92 806.874 2742.21 806.874C2744.51 806.874 2746.46 807.653 2748.08 809.212C2749.73 810.742 2750.55 812.596 2750.55 814.773C2750.55 816.92 2749.73 818.774 2748.08 820.333C2746.46 821.863 2744.51 822.628 2742.21 822.628Z" fill="#103EB0"/>
<path d="M2786.22 902.369C2781.92 902.369 2778.04 901.575 2774.57 899.986C2771.1 898.368 2768.35 896.029 2766.32 892.97C2764.32 889.91 2763.32 886.159 2763.32 881.717C2763.32 877.892 2764.05 874.744 2765.52 872.273C2766.99 869.802 2768.98 867.845 2771.48 866.404C2773.98 864.962 2776.78 863.874 2779.86 863.138C2782.95 862.403 2786.1 861.844 2789.31 861.461C2793.37 860.991 2796.66 860.608 2799.19 860.314C2801.72 859.99 2803.56 859.476 2804.71 858.77C2805.86 858.063 2806.43 856.916 2806.43 855.327V855.019C2806.43 851.165 2805.34 848.179 2803.16 846.06C2801.02 843.942 2797.81 842.883 2793.54 842.883C2789.1 842.883 2785.6 843.869 2783.04 845.84C2780.51 847.781 2778.76 849.944 2777.79 852.327L2765.39 849.502C2766.86 845.384 2769.01 842.059 2771.83 839.529C2774.69 836.97 2777.97 835.116 2781.67 833.969C2785.38 832.792 2789.28 832.204 2793.37 832.204C2796.07 832.204 2798.94 832.527 2801.97 833.175C2805.03 833.792 2807.89 834.94 2810.53 836.617C2813.21 838.294 2815.4 840.691 2817.11 843.81C2818.82 846.899 2819.67 850.915 2819.67 855.857V900.869H2806.78V891.602H2806.25C2805.4 893.308 2804.12 894.985 2802.41 896.632C2800.71 898.28 2798.52 899.648 2795.84 900.736C2793.16 901.825 2789.96 902.369 2786.22 902.369ZM2789.09 891.778C2792.74 891.778 2795.85 891.057 2798.44 889.616C2801.06 888.174 2803.05 886.291 2804.4 883.967C2805.78 881.614 2806.47 879.098 2806.47 876.421V867.684C2806 868.154 2805.09 868.596 2803.74 869.008C2802.41 869.39 2800.9 869.728 2799.19 870.022C2797.49 870.287 2795.82 870.537 2794.21 870.773C2792.59 870.979 2791.23 871.155 2790.15 871.302C2787.59 871.626 2785.25 872.17 2783.13 872.935C2781.04 873.7 2779.36 874.803 2778.1 876.245C2776.86 877.657 2776.25 879.54 2776.25 881.893C2776.25 885.159 2777.45 887.63 2779.86 889.307C2782.28 890.954 2785.35 891.778 2789.09 891.778Z" fill="#103EB0"/>
<path d="M491.288 991.472V980.086H548.48V991.472H526.371V1047.87H513.485V991.472H491.288Z" fill="#103EB0"/>
<path d="M588.494 1049.24C581.816 1049.24 576.064 1047.81 571.24 1044.96C566.444 1042.07 562.737 1038.03 560.119 1032.82C557.53 1027.58 556.236 1021.45 556.236 1014.42C556.236 1007.48 557.53 1001.36 560.119 996.061C562.737 990.766 566.385 986.632 571.063 983.661C575.77 980.689 581.272 979.204 587.567 979.204C591.392 979.204 595.099 979.836 598.688 981.101C602.277 982.366 605.499 984.352 608.352 987.059C611.206 989.765 613.457 993.281 615.104 997.606C616.752 1001.9 617.575 1007.12 617.575 1013.27V1017.95H563.694V1008.06H604.645C604.645 1004.59 603.939 1001.52 602.527 998.841C601.115 996.135 599.129 994.002 596.57 992.442C594.04 990.883 591.068 990.104 587.656 990.104C583.949 990.104 580.713 991.016 577.947 992.84C575.211 994.634 573.093 996.988 571.593 999.9C570.122 1002.78 569.386 1005.92 569.386 1009.3V1017.02C569.386 1021.55 570.181 1025.41 571.769 1028.58C573.387 1031.76 575.638 1034.19 578.521 1035.87C581.404 1037.51 584.773 1038.34 588.627 1038.34C591.127 1038.34 593.407 1037.98 595.467 1037.28C597.526 1036.54 599.306 1035.45 600.806 1034.01C602.307 1032.57 603.454 1030.79 604.248 1028.67L616.737 1030.92C615.737 1034.6 613.942 1037.82 611.353 1040.59C608.794 1043.32 605.572 1045.46 601.689 1046.99C597.835 1048.49 593.437 1049.24 588.494 1049.24Z" fill="#103EB0"/>
<path d="M632.215 1047.87V980.086H687.509V1047.87H674.579V991.472H645.057V1047.87H632.215Z" fill="#103EB0"/>
<path d="M734.363 1049.24C727.685 1049.24 721.934 1047.81 717.109 1044.96C712.313 1042.07 708.607 1038.03 705.988 1032.82C703.399 1027.58 702.105 1021.45 702.105 1014.42C702.105 1007.48 703.399 1001.36 705.988 996.061C708.607 990.766 712.255 986.632 716.932 983.661C721.639 980.689 727.141 979.204 733.437 979.204C737.261 979.204 740.968 979.836 744.557 981.101C748.146 982.366 751.368 984.352 754.222 987.059C757.075 989.765 759.326 993.281 760.973 997.606C762.621 1001.9 763.445 1007.12 763.445 1013.27V1017.95H709.563V1008.06H750.515C750.515 1004.59 749.809 1001.52 748.396 998.841C746.984 996.135 744.999 994.002 742.439 992.442C739.909 990.883 736.938 990.104 733.525 990.104C729.818 990.104 726.582 991.016 723.816 992.84C721.08 994.634 718.962 996.988 717.462 999.9C715.991 1002.78 715.255 1005.92 715.255 1009.3V1017.02C715.255 1021.55 716.05 1025.41 717.638 1028.58C719.256 1031.76 721.507 1034.19 724.39 1035.87C727.273 1037.51 730.642 1038.34 734.496 1038.34C736.996 1038.34 739.276 1037.98 741.336 1037.28C743.395 1036.54 745.175 1035.45 746.675 1034.01C748.176 1032.57 749.323 1030.79 750.117 1028.67L762.606 1030.92C761.606 1034.6 759.811 1037.82 757.222 1040.59C754.663 1043.32 751.441 1045.46 747.558 1046.99C743.704 1048.49 739.306 1049.24 734.363 1049.24Z" fill="#103EB0"/>
<path d="M778.084 1073.29V980.086H790.97V991.074H792.073C792.838 989.662 793.942 988.03 795.383 986.176C796.825 984.323 798.825 982.705 801.385 981.322C803.944 979.91 807.327 979.204 811.534 979.204C817.006 979.204 821.89 980.586 826.185 983.352C830.481 986.117 833.849 990.104 836.291 995.311C838.762 1000.52 839.998 1006.78 839.998 1014.11C839.998 1021.44 838.777 1027.72 836.335 1032.95C833.893 1038.16 830.539 1042.18 826.274 1045C822.008 1047.8 817.139 1049.19 811.667 1049.19C807.548 1049.19 804.18 1048.5 801.561 1047.12C798.972 1045.74 796.942 1044.12 795.471 1042.26C794 1040.41 792.868 1038.76 792.073 1037.32H791.279V1073.29H778.084ZM791.014 1013.98C791.014 1018.74 791.706 1022.92 793.088 1026.51C794.471 1030.1 796.472 1032.91 799.09 1034.94C801.708 1036.94 804.915 1037.94 808.71 1037.94C812.652 1037.94 815.947 1036.9 818.595 1034.81C821.243 1032.69 823.243 1029.82 824.597 1026.2C825.979 1022.58 826.671 1018.51 826.671 1013.98C826.671 1009.51 825.994 1005.49 824.641 1001.93C823.317 998.371 821.316 995.561 818.639 993.502C815.991 991.442 812.682 990.413 808.71 990.413C804.886 990.413 801.649 991.398 799.002 993.369C796.383 995.34 794.398 998.091 793.044 1001.62C791.691 1005.15 791.014 1009.27 791.014 1013.98Z" fill="#103EB0"/>
<path d="M864.71 1003.39H884.392C892.688 1003.39 899.072 1005.45 903.544 1009.56C908.016 1013.68 910.251 1018.99 910.251 1025.5C910.251 1029.73 909.251 1033.54 907.251 1036.92C905.25 1040.31 902.323 1042.99 898.469 1044.96C894.615 1046.9 889.923 1047.87 884.392 1047.87H854.781V980.086H867.711V1036.48H884.392C888.187 1036.48 891.305 1035.5 893.747 1033.53C896.189 1031.53 897.41 1028.98 897.41 1025.89C897.41 1022.63 896.189 1019.96 893.747 1017.91C891.305 1015.82 888.187 1014.77 884.392 1014.77H864.71V1003.39Z" fill="#103EB0"/>
<path d="M1003.87 1008.28V1019.71H967.156V1008.28H1003.87ZM970.863 980.086V1047.87H957.933V980.086H970.863ZM1013.09 980.086V1047.87H1000.21V980.086H1013.09Z" fill="#103EB0"/>
<path d="M1059.96 1049.24C1053.28 1049.24 1047.53 1047.81 1042.71 1044.96C1037.91 1042.07 1034.2 1038.03 1031.58 1032.82C1029 1027.58 1027.7 1021.45 1027.7 1014.42C1027.7 1007.48 1029 1001.36 1031.58 996.061C1034.2 990.766 1037.85 986.632 1042.53 983.661C1047.24 980.689 1052.74 979.204 1059.03 979.204C1062.86 979.204 1066.56 979.836 1070.15 981.101C1073.74 982.366 1076.96 984.352 1079.82 987.059C1082.67 989.765 1084.92 993.281 1086.57 997.606C1088.22 1001.9 1089.04 1007.12 1089.04 1013.27V1017.95H1035.16V1008.06H1076.11C1076.11 1004.59 1075.41 1001.52 1073.99 998.841C1072.58 996.135 1070.6 994.002 1068.04 992.442C1065.51 990.883 1062.53 990.104 1059.12 990.104C1055.41 990.104 1052.18 991.016 1049.41 992.84C1046.68 994.634 1044.56 996.988 1043.06 999.9C1041.59 1002.78 1040.85 1005.92 1040.85 1009.3V1017.02C1040.85 1021.55 1041.65 1025.41 1043.23 1028.58C1044.85 1031.76 1047.1 1034.19 1049.99 1035.87C1052.87 1037.51 1056.24 1038.34 1060.09 1038.34C1062.59 1038.34 1064.87 1037.98 1066.93 1037.28C1068.99 1036.54 1070.77 1035.45 1072.27 1034.01C1073.77 1032.57 1074.92 1030.79 1075.71 1028.67L1088.2 1030.92C1087.2 1034.6 1085.41 1037.82 1082.82 1040.59C1080.26 1043.32 1077.04 1045.46 1073.15 1046.99C1069.3 1048.49 1064.9 1049.24 1059.96 1049.24Z" fill="#103EB0"/>
<path d="M1136.57 1073.29V980.086H1149.45V991.074H1150.56C1151.32 989.662 1152.43 988.03 1153.87 986.176C1155.31 984.323 1157.31 982.705 1159.87 981.322C1162.43 979.91 1165.81 979.204 1170.02 979.204C1175.49 979.204 1180.37 980.586 1184.67 983.352C1188.96 986.117 1192.33 990.104 1194.77 995.311C1197.25 1000.52 1198.48 1006.78 1198.48 1014.11C1198.48 1021.44 1197.26 1027.72 1194.82 1032.95C1192.38 1038.16 1189.02 1042.18 1184.76 1045C1180.49 1047.8 1175.62 1049.19 1170.15 1049.19C1166.03 1049.19 1162.66 1048.5 1160.05 1047.12C1157.46 1045.74 1155.43 1044.12 1153.96 1042.26C1152.48 1040.41 1151.35 1038.76 1150.56 1037.32H1149.76V1073.29H1136.57ZM1149.5 1013.98C1149.5 1018.74 1150.19 1022.92 1151.57 1026.51C1152.95 1030.1 1154.96 1032.91 1157.57 1034.94C1160.19 1036.94 1163.4 1037.94 1167.19 1037.94C1171.14 1037.94 1174.43 1036.9 1177.08 1034.81C1179.73 1032.69 1181.73 1029.82 1183.08 1026.2C1184.46 1022.58 1185.15 1018.51 1185.15 1013.98C1185.15 1009.51 1184.48 1005.49 1183.12 1001.93C1181.8 998.371 1179.8 995.561 1177.12 993.502C1174.48 991.442 1171.17 990.413 1167.19 990.413C1163.37 990.413 1160.13 991.398 1157.49 993.369C1154.87 995.34 1152.88 998.091 1151.53 1001.62C1150.17 1005.15 1149.5 1009.27 1149.5 1013.98Z" fill="#103EB0"/>
<path d="M1232.99 1049.37C1228.7 1049.37 1224.81 1048.57 1221.34 1046.99C1217.87 1045.37 1215.12 1043.03 1213.09 1039.97C1211.09 1036.91 1210.09 1033.16 1210.09 1028.72C1210.09 1024.89 1210.82 1021.74 1212.29 1019.27C1213.77 1016.8 1215.75 1014.85 1218.25 1013.4C1220.75 1011.96 1223.55 1010.87 1226.64 1010.14C1229.73 1009.4 1232.87 1008.84 1236.08 1008.46C1240.14 1007.99 1243.43 1007.61 1245.96 1007.31C1248.49 1006.99 1250.33 1006.48 1251.48 1005.77C1252.63 1005.06 1253.2 1003.92 1253.2 1002.33V1002.02C1253.2 998.165 1252.11 995.179 1249.94 993.06C1247.79 990.942 1244.58 989.883 1240.32 989.883C1235.87 989.883 1232.37 990.869 1229.81 992.84C1227.28 994.781 1225.53 996.944 1224.56 999.327L1212.16 996.502C1213.63 992.384 1215.78 989.059 1218.6 986.529C1221.46 983.97 1224.74 982.116 1228.45 980.969C1232.15 979.792 1236.05 979.204 1240.14 979.204C1242.85 979.204 1245.71 979.527 1248.74 980.175C1251.8 980.792 1254.66 981.94 1257.31 983.617C1259.98 985.294 1262.17 987.691 1263.88 990.81C1265.59 993.899 1266.44 997.915 1266.44 1002.86V1047.87H1253.55V1038.6H1253.03C1252.17 1040.31 1250.89 1041.98 1249.19 1043.63C1247.48 1045.28 1245.29 1046.65 1242.61 1047.74C1239.93 1048.82 1236.73 1049.37 1232.99 1049.37ZM1235.86 1038.78C1239.51 1038.78 1242.63 1038.06 1245.21 1036.62C1247.83 1035.17 1249.82 1033.29 1251.17 1030.97C1252.55 1028.61 1253.25 1026.1 1253.25 1023.42V1014.68C1252.78 1015.15 1251.86 1015.6 1250.51 1016.01C1249.19 1016.39 1247.67 1016.73 1245.96 1017.02C1244.26 1017.29 1242.6 1017.54 1240.98 1017.77C1239.36 1017.98 1238.01 1018.16 1236.92 1018.3C1234.36 1018.63 1232.02 1019.17 1229.9 1019.94C1227.81 1020.7 1226.14 1021.8 1224.87 1023.24C1223.64 1024.66 1223.02 1026.54 1223.02 1028.89C1223.02 1032.16 1224.22 1034.63 1226.64 1036.31C1229.05 1037.95 1232.12 1038.78 1235.86 1038.78Z" fill="#103EB0"/>
<path d="M1336.31 954.844L1341.78 963.185C1339.75 965.038 1337.44 966.362 1334.85 967.156C1332.29 967.921 1329.34 968.407 1325.98 968.613C1322.63 968.789 1318.79 968.951 1314.46 969.098C1309.58 969.245 1305.56 970.304 1302.42 972.275C1299.27 974.217 1296.84 977.1 1295.14 980.925C1293.46 984.72 1292.37 989.486 1291.87 995.223H1292.71C1294.92 991.016 1297.97 987.868 1301.89 985.779C1305.83 983.69 1310.26 982.646 1315.17 982.646C1320.64 982.646 1325.51 983.896 1329.78 986.397C1334.04 988.897 1337.4 992.56 1339.84 997.385C1342.31 1002.18 1343.55 1008.05 1343.55 1014.99C1343.55 1022.02 1342.25 1028.1 1339.66 1033.22C1337.1 1038.34 1333.48 1042.29 1328.81 1045.09C1324.16 1047.85 1318.67 1049.24 1312.35 1049.24C1306.02 1049.24 1300.5 1047.81 1295.8 1044.96C1291.12 1042.07 1287.49 1037.81 1284.9 1032.16C1282.34 1026.51 1281.06 1019.54 1281.06 1011.24V1004.53C1281.06 989.03 1283.82 977.365 1289.35 969.539C1294.89 961.714 1303.15 957.698 1314.16 957.492C1317.72 957.404 1320.89 957.389 1323.69 957.448C1326.48 957.477 1328.92 957.345 1331.01 957.051C1333.13 956.727 1334.9 955.992 1336.31 954.844ZM1312.39 1038.16C1316.07 1038.16 1319.23 1037.23 1321.88 1035.38C1324.56 1033.5 1326.61 1030.83 1328.06 1027.39C1329.5 1023.95 1330.22 1019.89 1330.22 1015.21C1330.22 1010.62 1329.5 1006.73 1328.06 1003.52C1326.61 1000.31 1324.56 997.87 1321.88 996.193C1319.2 994.487 1315.99 993.634 1312.26 993.634C1309.49 993.634 1307.02 994.119 1304.84 995.09C1302.67 996.032 1300.8 997.429 1299.24 999.283C1297.71 1001.14 1296.52 1003.4 1295.67 1006.08C1294.84 1008.73 1294.4 1011.77 1294.34 1015.21C1294.34 1022.22 1295.94 1027.79 1299.15 1031.94C1302.39 1036.09 1306.8 1038.16 1312.39 1038.16Z" fill="#103EB0"/>
<path d="M1386.84 1049.24C1380.48 1049.24 1374.94 1047.78 1370.2 1044.87C1365.46 1041.96 1361.79 1037.88 1359.17 1032.64C1356.55 1027.41 1355.24 1021.29 1355.24 1014.29C1355.24 1007.26 1356.55 1001.11 1359.17 995.84C1361.79 990.574 1365.46 986.485 1370.2 983.573C1374.94 980.66 1380.48 979.204 1386.84 979.204C1393.19 979.204 1398.74 980.66 1403.47 983.573C1408.21 986.485 1411.89 990.574 1414.51 995.84C1417.12 1001.11 1418.43 1007.26 1418.43 1014.29C1418.43 1021.29 1417.12 1027.41 1414.51 1032.64C1411.89 1037.88 1408.21 1041.96 1403.47 1044.87C1398.74 1047.78 1393.19 1049.24 1386.84 1049.24ZM1386.88 1038.16C1391 1038.16 1394.41 1037.07 1397.12 1034.89C1399.83 1032.72 1401.83 1029.82 1403.12 1026.2C1404.44 1022.58 1405.11 1018.6 1405.11 1014.24C1405.11 1009.92 1404.44 1005.95 1403.12 1002.33C1401.83 998.679 1399.83 995.752 1397.12 993.546C1394.41 991.339 1391 990.236 1386.88 990.236C1382.73 990.236 1379.29 991.339 1376.55 993.546C1373.85 995.752 1371.83 998.679 1370.51 1002.33C1369.21 1005.95 1368.57 1009.92 1368.57 1014.24C1368.57 1018.6 1369.21 1022.58 1370.51 1026.2C1371.83 1029.82 1373.85 1032.72 1376.55 1034.89C1379.29 1037.07 1382.73 1038.16 1386.88 1038.16Z" fill="#103EB0"/>
<path d="M1425 991.472V980.086H1482.19V991.472H1460.08V1047.87H1447.19V991.472H1425Z" fill="#103EB0"/>
<path d="M1512.71 1049.37C1508.42 1049.37 1504.54 1048.57 1501.06 1046.99C1497.59 1045.37 1494.84 1043.03 1492.81 1039.97C1490.81 1036.91 1489.81 1033.16 1489.81 1028.72C1489.81 1024.89 1490.55 1021.74 1492.02 1019.27C1493.49 1016.8 1495.48 1014.85 1497.98 1013.4C1500.48 1011.96 1503.27 1010.87 1506.36 1010.14C1509.45 1009.4 1512.6 1008.84 1515.8 1008.46C1519.86 1007.99 1523.16 1007.61 1525.69 1007.31C1528.22 1006.99 1530.06 1006.48 1531.21 1005.77C1532.35 1005.06 1532.93 1003.92 1532.93 1002.33V1002.02C1532.93 998.165 1531.84 995.179 1529.66 993.06C1527.51 990.942 1524.31 989.883 1520.04 989.883C1515.6 989.883 1512.1 990.869 1509.54 992.84C1507.01 994.781 1505.26 996.944 1504.29 999.327L1491.89 996.502C1493.36 992.384 1495.5 989.059 1498.33 986.529C1501.18 983.97 1504.46 982.116 1508.17 980.969C1511.88 979.792 1515.77 979.204 1519.86 979.204C1522.57 979.204 1525.44 979.527 1528.47 980.175C1531.53 980.792 1534.38 981.94 1537.03 983.617C1539.71 985.294 1541.9 987.691 1543.61 990.81C1545.31 993.899 1546.16 997.915 1546.16 1002.86V1047.87H1533.28V1038.6H1532.75C1531.9 1040.31 1530.62 1041.98 1528.91 1043.63C1527.2 1045.28 1525.01 1046.65 1522.34 1047.74C1519.66 1048.82 1516.45 1049.37 1512.71 1049.37ZM1515.58 1038.78C1519.23 1038.78 1522.35 1038.06 1524.94 1036.62C1527.56 1035.17 1529.54 1033.29 1530.9 1030.97C1532.28 1028.61 1532.97 1026.1 1532.97 1023.42V1014.68C1532.5 1015.15 1531.59 1015.6 1530.23 1016.01C1528.91 1016.39 1527.4 1016.73 1525.69 1017.02C1523.98 1017.29 1522.32 1017.54 1520.7 1017.77C1519.08 1017.98 1517.73 1018.16 1516.64 1018.3C1514.08 1018.63 1511.74 1019.17 1509.63 1019.94C1507.54 1020.7 1505.86 1021.8 1504.6 1023.24C1503.36 1024.66 1502.74 1026.54 1502.74 1028.89C1502.74 1032.16 1503.95 1034.63 1506.36 1036.31C1508.77 1037.95 1511.85 1038.78 1515.58 1038.78Z" fill="#103EB0"/>
<path d="M1592.95 1049.24C1586.27 1049.24 1580.52 1047.81 1575.7 1044.96C1570.9 1042.07 1567.2 1038.03 1564.58 1032.82C1561.99 1027.58 1560.69 1021.45 1560.69 1014.42C1560.69 1007.48 1561.99 1001.36 1564.58 996.061C1567.2 990.766 1570.84 986.632 1575.52 983.661C1580.23 980.689 1585.73 979.204 1592.03 979.204C1595.85 979.204 1599.56 979.836 1603.15 981.101C1606.74 982.366 1609.96 984.352 1612.81 987.059C1615.66 989.765 1617.92 993.281 1619.56 997.606C1621.21 1001.9 1622.03 1007.12 1622.03 1013.27V1017.95H1568.15V1008.06H1609.1C1609.1 1004.59 1608.4 1001.52 1606.99 998.841C1605.57 996.135 1603.59 994.002 1601.03 992.442C1598.5 990.883 1595.53 990.104 1592.11 990.104C1588.41 990.104 1585.17 991.016 1582.41 992.84C1579.67 994.634 1577.55 996.988 1576.05 999.9C1574.58 1002.78 1573.85 1005.92 1573.85 1009.3V1017.02C1573.85 1021.55 1574.64 1025.41 1576.23 1028.58C1577.85 1031.76 1580.1 1034.19 1582.98 1035.87C1585.86 1037.51 1589.23 1038.34 1593.09 1038.34C1595.59 1038.34 1597.87 1037.98 1599.93 1037.28C1601.98 1036.54 1603.76 1035.45 1605.27 1034.01C1606.77 1032.57 1607.91 1030.79 1608.71 1028.67L1621.2 1030.92C1620.2 1034.6 1618.4 1037.82 1615.81 1040.59C1613.25 1043.32 1610.03 1045.46 1606.15 1046.99C1602.29 1048.49 1597.9 1049.24 1592.95 1049.24Z" fill="#103EB0"/>
<path d="M1630.69 991.472V980.086H1687.89V991.472H1665.78V1047.87H1652.89V991.472H1630.69Z" fill="#103EB0"/>
<path d="M1699.98 1048.71C1697.57 1048.71 1695.49 1047.85 1693.76 1046.15C1692.02 1044.41 1691.15 1042.32 1691.15 1039.88C1691.15 1037.47 1692.02 1035.41 1693.76 1033.7C1695.49 1031.97 1697.57 1031.1 1699.98 1031.1C1702.39 1031.1 1704.46 1031.97 1706.2 1033.7C1707.94 1035.41 1708.8 1037.47 1708.8 1039.88C1708.8 1041.5 1708.39 1042.99 1707.57 1044.34C1706.77 1045.66 1705.71 1046.72 1704.39 1047.52C1703.07 1048.31 1701.6 1048.71 1699.98 1048.71Z" fill="#103EB0"/>
<path d="M1765.37 1049.1V1037.1H1770.79C1773.06 1037.1 1774.93 1036.72 1776.4 1035.95C1777.9 1035.19 1779.12 1034.16 1780.06 1032.86C1781.03 1031.54 1781.84 1030.1 1782.49 1028.54L1783.77 1025.32L1751.99 957.492H1766.47L1790.17 1009.74L1811.26 957.492H1825.56L1794.31 1032.2C1792.99 1035.2 1791.46 1037.98 1789.73 1040.54C1788.02 1043.1 1785.74 1045.18 1782.89 1046.77C1780.03 1048.32 1776.25 1049.1 1771.54 1049.1H1765.37Z" fill="#103EB0"/>
<path d="M1830.78 1067.42V1036.44H1836.29C1837.7 1035.14 1838.9 1033.6 1839.87 1031.81C1840.87 1030.01 1841.71 1027.88 1842.38 1025.41C1843.09 1022.94 1843.68 1020.05 1844.15 1016.76C1844.62 1013.43 1845.03 1009.64 1845.38 1005.37L1847.5 980.086H1893.57V1036.44H1903.99V1067.42H1891.1V1047.87H1843.84V1067.42H1830.78ZM1850.41 1036.44H1880.69V991.383H1859.33L1857.92 1005.37C1857.24 1012.49 1856.39 1018.67 1855.36 1023.91C1854.33 1029.11 1852.68 1033.29 1850.41 1036.44Z" fill="#103EB0"/>
<path d="M1945.44 1049.24C1939.08 1049.24 1933.54 1047.78 1928.8 1044.87C1924.06 1041.96 1920.38 1037.88 1917.77 1032.64C1915.15 1027.41 1913.84 1021.29 1913.84 1014.29C1913.84 1007.26 1915.15 1001.11 1917.77 995.84C1920.38 990.574 1924.06 986.485 1928.8 983.573C1933.54 980.66 1939.08 979.204 1945.44 979.204C1951.79 979.204 1957.34 980.66 1962.07 983.573C1966.81 986.485 1970.49 990.574 1973.1 995.84C1975.72 1001.11 1977.03 1007.26 1977.03 1014.29C1977.03 1021.29 1975.72 1027.41 1973.1 1032.64C1970.49 1037.88 1966.81 1041.96 1962.07 1044.87C1957.34 1047.78 1951.79 1049.24 1945.44 1049.24ZM1945.48 1038.16C1949.6 1038.16 1953.01 1037.07 1955.72 1034.89C1958.42 1032.72 1960.42 1029.82 1961.72 1026.2C1963.04 1022.58 1963.7 1018.6 1963.7 1014.24C1963.7 1009.92 1963.04 1005.95 1961.72 1002.33C1960.42 998.679 1958.42 995.752 1955.72 993.546C1953.01 991.339 1949.6 990.236 1945.48 990.236C1941.33 990.236 1937.89 991.339 1935.15 993.546C1932.45 995.752 1930.43 998.679 1929.11 1002.33C1927.81 1005.95 1927.17 1009.92 1927.17 1014.24C1927.17 1018.6 1927.81 1022.58 1929.11 1026.2C1930.43 1029.82 1932.45 1032.72 1935.15 1034.89C1937.89 1037.07 1941.33 1038.16 1945.48 1038.16Z" fill="#103EB0"/>
<path d="M2020.31 1049.24C2013.75 1049.24 2008.1 1047.75 2003.37 1044.78C1998.66 1041.78 1995.04 1037.65 1992.51 1032.38C1989.98 1027.11 1988.72 1021.08 1988.72 1014.29C1988.72 1007.4 1990.01 1001.33 1992.6 996.061C1995.19 990.766 1998.84 986.632 2003.54 983.661C2008.25 980.689 2013.8 979.204 2020.18 979.204C2025.33 979.204 2029.92 980.16 2033.95 982.072C2037.98 983.955 2041.23 986.603 2043.7 990.015C2046.2 993.428 2047.69 997.414 2048.16 1001.97H2035.32C2034.61 998.797 2032.99 996.061 2030.46 993.766C2027.96 991.472 2024.61 990.324 2020.4 990.324C2016.72 990.324 2013.5 991.295 2010.74 993.237C2008 995.149 2005.87 997.885 2004.34 1001.44C2002.81 1004.98 2002.04 1009.15 2002.04 1013.98C2002.04 1018.92 2002.79 1023.19 2004.29 1026.78C2005.79 1030.36 2007.91 1033.14 2010.65 1035.12C2013.41 1037.09 2016.66 1038.07 2020.4 1038.07C2022.9 1038.07 2025.17 1037.62 2027.2 1036.7C2029.26 1035.76 2030.98 1034.42 2032.36 1032.69C2033.77 1030.95 2034.76 1028.86 2035.32 1026.42H2048.16C2047.69 1030.81 2046.26 1034.72 2043.88 1038.16C2041.49 1041.6 2038.3 1044.31 2034.3 1046.28C2030.33 1048.25 2025.67 1049.24 2020.31 1049.24Z" fill="#103EB0"/>
<path d="M2057.14 991.472V980.086H2114.33V991.472H2092.22V1047.87H2079.33V991.472H2057.14Z" fill="#103EB0"/>
<path d="M2153.68 1049.24C2147.33 1049.24 2141.78 1047.78 2137.04 1044.87C2132.31 1041.96 2128.63 1037.88 2126.01 1032.64C2123.39 1027.41 2122.08 1021.29 2122.08 1014.29C2122.08 1007.26 2123.39 1001.11 2126.01 995.84C2128.63 990.574 2132.31 986.485 2137.04 983.573C2141.78 980.66 2147.33 979.204 2153.68 979.204C2160.04 979.204 2165.58 980.66 2170.32 983.573C2175.05 986.485 2178.73 990.574 2181.35 995.84C2183.97 1001.11 2185.28 1007.26 2185.28 1014.29C2185.28 1021.29 2183.97 1027.41 2181.35 1032.64C2178.73 1037.88 2175.05 1041.96 2170.32 1044.87C2165.58 1047.78 2160.04 1049.24 2153.68 1049.24ZM2153.73 1038.16C2157.84 1038.16 2161.26 1037.07 2163.96 1034.89C2166.67 1032.72 2168.67 1029.82 2169.96 1026.2C2171.29 1022.58 2171.95 1018.6 2171.95 1014.24C2171.95 1009.92 2171.29 1005.95 2169.96 1002.33C2168.67 998.679 2166.67 995.752 2163.96 993.546C2161.26 991.339 2157.84 990.236 2153.73 990.236C2149.58 990.236 2146.14 991.339 2143.4 993.546C2140.69 995.752 2138.68 998.679 2137.35 1002.33C2136.06 1005.95 2135.41 1009.92 2135.41 1014.24C2135.41 1018.6 2136.06 1022.58 2137.35 1026.2C2138.68 1029.82 2140.69 1032.72 2143.4 1034.89C2146.14 1037.07 2149.58 1038.16 2153.73 1038.16Z" fill="#103EB0"/>
<path d="M2200.01 1047.87V980.086H2228.12C2235.77 980.086 2241.83 981.719 2246.3 984.985C2250.77 988.221 2253.01 992.619 2253.01 998.179C2253.01 1002.15 2251.74 1005.3 2249.21 1007.62C2246.68 1009.95 2243.33 1011.51 2239.15 1012.3C2242.18 1012.65 2244.96 1013.57 2247.49 1015.04C2250.02 1016.48 2252.05 1018.42 2253.58 1020.86C2255.14 1023.3 2255.92 1026.22 2255.92 1029.6C2255.92 1033.19 2254.99 1036.37 2253.14 1039.13C2251.28 1041.87 2248.59 1044.01 2245.06 1045.57C2241.56 1047.1 2237.34 1047.87 2232.4 1047.87H2200.01ZM2212.41 1036.84H2232.4C2235.66 1036.84 2238.22 1036.06 2240.08 1034.5C2241.93 1032.94 2242.86 1030.82 2242.86 1028.14C2242.86 1025 2241.93 1022.52 2240.08 1020.73C2238.22 1018.91 2235.66 1017.99 2232.4 1017.99H2212.41V1036.84ZM2212.41 1008.33H2228.25C2230.72 1008.33 2232.84 1007.98 2234.6 1007.27C2236.4 1006.56 2237.77 1005.56 2238.71 1004.27C2239.68 1002.95 2240.16 1001.39 2240.16 999.591C2240.16 996.973 2239.09 994.928 2236.94 993.457C2234.79 991.986 2231.85 991.251 2228.12 991.251H2212.41V1008.33Z" fill="#103EB0"/>
<path d="M2299.61 1049.24C2292.93 1049.24 2287.18 1047.81 2282.35 1044.96C2277.56 1042.07 2273.85 1038.03 2271.23 1032.82C2268.64 1027.58 2267.35 1021.45 2267.35 1014.42C2267.35 1007.48 2268.64 1001.36 2271.23 996.061C2273.85 990.766 2277.5 986.632 2282.17 983.661C2286.88 980.689 2292.38 979.204 2298.68 979.204C2302.5 979.204 2306.21 979.836 2309.8 981.101C2313.39 982.366 2316.61 984.352 2319.46 987.059C2322.32 989.765 2324.57 993.281 2326.22 997.606C2327.86 1001.9 2328.69 1007.12 2328.69 1013.27V1017.95H2274.8V1008.06H2315.76C2315.76 1004.59 2315.05 1001.52 2313.64 998.841C2312.23 996.135 2310.24 994.002 2307.68 992.442C2305.15 990.883 2302.18 990.104 2298.77 990.104C2295.06 990.104 2291.82 991.016 2289.06 992.84C2286.32 994.634 2284.2 996.988 2282.7 999.9C2281.23 1002.78 2280.5 1005.92 2280.5 1009.3V1017.02C2280.5 1021.55 2281.29 1025.41 2282.88 1028.58C2284.5 1031.76 2286.75 1034.19 2289.63 1035.87C2292.52 1037.51 2295.88 1038.34 2299.74 1038.34C2302.24 1038.34 2304.52 1037.98 2306.58 1037.28C2308.64 1036.54 2310.42 1035.45 2311.92 1034.01C2313.42 1032.57 2314.57 1030.79 2315.36 1028.67L2327.85 1030.92C2326.85 1034.6 2325.05 1037.82 2322.46 1040.59C2319.91 1043.32 2316.68 1045.46 2312.8 1046.99C2308.95 1048.49 2304.55 1049.24 2299.61 1049.24Z" fill="#103EB0"/>
<path d="M2343.33 1073.29V980.086H2356.21V991.074H2357.32C2358.08 989.662 2359.18 988.03 2360.63 986.176C2362.07 984.323 2364.07 982.705 2366.63 981.322C2369.19 979.91 2372.57 979.204 2376.78 979.204C2382.25 979.204 2387.13 980.586 2391.43 983.352C2395.72 986.117 2399.09 990.104 2401.53 995.311C2404 1000.52 2405.24 1006.78 2405.24 1014.11C2405.24 1021.44 2404.02 1027.72 2401.58 1032.95C2399.14 1038.16 2395.78 1042.18 2391.52 1045C2387.25 1047.8 2382.38 1049.19 2376.91 1049.19C2372.79 1049.19 2369.42 1048.5 2366.8 1047.12C2364.21 1045.74 2362.18 1044.12 2360.71 1042.26C2359.24 1040.41 2358.11 1038.76 2357.32 1037.32H2356.52V1073.29H2343.33ZM2356.26 1013.98C2356.26 1018.74 2356.95 1022.92 2358.33 1026.51C2359.71 1030.1 2361.71 1032.91 2364.33 1034.94C2366.95 1036.94 2370.16 1037.94 2373.95 1037.94C2377.89 1037.94 2381.19 1036.9 2383.84 1034.81C2386.49 1032.69 2388.49 1029.82 2389.84 1026.2C2391.22 1022.58 2391.91 1018.51 2391.91 1013.98C2391.91 1009.51 2391.24 1005.49 2389.88 1001.93C2388.56 998.371 2386.56 995.561 2383.88 993.502C2381.23 991.442 2377.92 990.413 2373.95 990.413C2370.13 990.413 2366.89 991.398 2364.24 993.369C2361.63 995.34 2359.64 998.091 2358.29 1001.62C2356.93 1005.15 2356.26 1009.27 2356.26 1013.98Z" fill="#103EB0"/>
<path d="M2429.95 1003.39H2449.63C2457.93 1003.39 2464.31 1005.45 2468.79 1009.56C2473.26 1013.68 2475.49 1018.99 2475.49 1025.5C2475.49 1029.73 2474.49 1033.54 2472.49 1036.92C2470.49 1040.31 2467.57 1042.99 2463.71 1044.96C2459.86 1046.9 2455.16 1047.87 2449.63 1047.87H2420.02V980.086H2432.95V1036.48H2449.63C2453.43 1036.48 2456.55 1035.5 2458.99 1033.53C2461.43 1031.53 2462.65 1028.98 2462.65 1025.89C2462.65 1022.63 2461.43 1019.96 2458.99 1017.91C2456.55 1015.82 2453.43 1014.77 2449.63 1014.77H2429.95V1003.39Z" fill="#103EB0"/>
<path d="M2479.45 991.472V980.086H2536.65V991.472H2514.54V1047.87H2501.65V991.472H2479.45Z" fill="#103EB0"/>
<path d="M2576.66 1049.24C2569.98 1049.24 2564.23 1047.81 2559.41 1044.96C2554.61 1042.07 2550.9 1038.03 2548.28 1032.82C2545.7 1027.58 2544.4 1021.45 2544.4 1014.42C2544.4 1007.48 2545.7 1001.36 2548.28 996.061C2550.9 990.766 2554.55 986.632 2559.23 983.661C2563.94 980.689 2569.44 979.204 2575.73 979.204C2579.56 979.204 2583.26 979.836 2586.85 981.101C2590.44 982.366 2593.66 984.352 2596.52 987.059C2599.37 989.765 2601.62 993.281 2603.27 997.606C2604.92 1001.9 2605.74 1007.12 2605.74 1013.27V1017.95H2551.86V1008.06H2592.81C2592.81 1004.59 2592.11 1001.52 2590.69 998.841C2589.28 996.135 2587.29 994.002 2584.74 992.442C2582.21 990.883 2579.23 990.104 2575.82 990.104C2572.11 990.104 2568.88 991.016 2566.11 992.84C2563.38 994.634 2561.26 996.988 2559.76 999.9C2558.29 1002.78 2557.55 1005.92 2557.55 1009.3V1017.02C2557.55 1021.55 2558.35 1025.41 2559.93 1028.58C2561.55 1031.76 2563.8 1034.19 2566.69 1035.87C2569.57 1037.51 2572.94 1038.34 2576.79 1038.34C2579.29 1038.34 2581.57 1037.98 2583.63 1037.28C2585.69 1036.54 2587.47 1035.45 2588.97 1034.01C2590.47 1032.57 2591.62 1030.79 2592.41 1028.67L2604.9 1030.92C2603.9 1034.6 2602.11 1037.82 2599.52 1040.59C2596.96 1043.32 2593.74 1045.46 2589.85 1046.99C2586 1048.49 2581.6 1049.24 2576.66 1049.24Z" fill="#103EB0"/>
<path d="M2648.93 1049.24C2642.37 1049.24 2636.72 1047.75 2631.99 1044.78C2627.28 1041.78 2623.66 1037.65 2621.13 1032.38C2618.6 1027.11 2617.34 1021.08 2617.34 1014.29C2617.34 1007.4 2618.63 1001.33 2621.22 996.061C2623.81 990.766 2627.46 986.632 2632.16 983.661C2636.87 980.689 2642.42 979.204 2648.8 979.204C2653.95 979.204 2658.54 980.16 2662.57 982.072C2666.6 983.955 2669.85 986.603 2672.32 990.015C2674.82 993.428 2676.31 997.414 2676.78 1001.97H2663.94C2663.23 998.797 2661.61 996.061 2659.08 993.766C2656.58 991.472 2653.23 990.324 2649.02 990.324C2645.34 990.324 2642.12 991.295 2639.36 993.237C2636.62 995.149 2634.49 997.885 2632.96 1001.44C2631.43 1004.98 2630.66 1009.15 2630.66 1013.98C2630.66 1018.92 2631.41 1023.19 2632.91 1026.78C2634.41 1030.36 2636.53 1033.14 2639.27 1035.12C2642.03 1037.09 2645.28 1038.07 2649.02 1038.07C2651.52 1038.07 2653.79 1037.62 2655.82 1036.7C2657.88 1035.76 2659.6 1034.42 2660.98 1032.69C2662.39 1030.95 2663.38 1028.86 2663.94 1026.42H2676.78C2676.31 1030.81 2674.88 1034.72 2672.5 1038.16C2670.11 1041.6 2666.92 1044.31 2662.92 1046.28C2658.95 1048.25 2654.29 1049.24 2648.93 1049.24Z" fill="#103EB0"/>
<path d="M2700.82 1003.39H2720.5C2728.8 1003.39 2735.18 1005.45 2739.65 1009.56C2744.12 1013.68 2746.36 1018.99 2746.36 1025.5C2746.36 1029.73 2745.36 1033.54 2743.36 1036.92C2741.36 1040.31 2738.43 1042.99 2734.58 1044.96C2730.72 1046.9 2726.03 1047.87 2720.5 1047.87H2690.89V980.086H2703.82V1036.48H2720.5C2724.29 1036.48 2727.41 1035.5 2729.85 1033.53C2732.3 1031.53 2733.52 1028.98 2733.52 1025.89C2733.52 1022.63 2732.3 1019.96 2729.85 1017.91C2727.41 1015.82 2724.29 1014.77 2720.5 1014.77H2700.82V1003.39Z" fill="#103EB0"/>
<path d="M2778.32 1035.51L2777.66 1040.32C2777.22 1043.85 2776.47 1047.53 2775.41 1051.36C2774.38 1055.21 2773.3 1058.78 2772.19 1062.08C2771.1 1065.37 2770.2 1067.99 2769.49 1069.93H2760.14C2760.52 1068.11 2761.05 1065.64 2761.73 1062.52C2762.4 1059.43 2763.07 1055.97 2763.71 1052.15C2764.36 1048.32 2764.85 1044.43 2765.17 1040.46L2765.61 1035.51H2778.32Z" fill="#103EB0"/>
<path d="M2882.8 980.086V1047.87H2869.91V980.086H2882.8ZM2877.19 1011.55V1022.94C2875.16 1023.76 2873.01 1024.5 2870.75 1025.14C2868.48 1025.76 2866.1 1026.25 2863.6 1026.6C2861.1 1026.95 2858.5 1027.13 2855.79 1027.13C2847.4 1027.13 2840.74 1025.08 2835.8 1020.99C2830.86 1016.88 2828.38 1010.58 2828.38 1002.11V979.954H2841.23V1002.11C2841.23 1005.31 2841.81 1007.92 2842.99 1009.92C2844.17 1011.92 2845.84 1013.39 2848.02 1014.33C2850.2 1015.27 2852.79 1015.74 2855.79 1015.74C2859.76 1015.74 2863.42 1015.37 2866.78 1014.64C2870.16 1013.87 2873.63 1012.84 2877.19 1011.55Z" fill="#103EB0"/>
<path d="M2891.94 991.472V980.086H2949.13V991.472H2927.02V1047.87H2914.14V991.472H2891.94Z" fill="#103EB0"/>
<path d="M2988.49 1049.24C2982.13 1049.24 2976.59 1047.78 2971.85 1044.87C2967.11 1041.96 2963.43 1037.88 2960.82 1032.64C2958.2 1027.41 2956.89 1021.29 2956.89 1014.29C2956.89 1007.26 2958.2 1001.11 2960.82 995.84C2963.43 990.574 2967.11 986.485 2971.85 983.573C2976.59 980.66 2982.13 979.204 2988.49 979.204C2994.84 979.204 3000.39 980.66 3005.12 983.573C3009.86 986.485 3013.54 990.574 3016.15 995.84C3018.77 1001.11 3020.08 1007.26 3020.08 1014.29C3020.08 1021.29 3018.77 1027.41 3016.15 1032.64C3013.54 1037.88 3009.86 1041.96 3005.12 1044.87C3000.39 1047.78 2994.84 1049.24 2988.49 1049.24ZM2988.53 1038.16C2992.65 1038.16 2996.06 1037.07 2998.77 1034.89C3001.47 1032.72 3003.47 1029.82 3004.77 1026.2C3006.09 1022.58 3006.75 1018.6 3006.75 1014.24C3006.75 1009.92 3006.09 1005.95 3004.77 1002.33C3003.47 998.679 3001.47 995.752 2998.77 993.546C2996.06 991.339 2992.65 990.236 2988.53 990.236C2984.38 990.236 2980.94 991.339 2978.2 993.546C2975.5 995.752 2973.48 998.679 2972.16 1002.33C2970.86 1005.95 2970.22 1009.92 2970.22 1014.24C2970.22 1018.6 2970.86 1022.58 2972.16 1026.2C2973.48 1029.82 2975.5 1032.72 2978.2 1034.89C2980.94 1037.07 2984.38 1038.16 2988.53 1038.16Z" fill="#103EB0"/>
<path d="M851.929 1194.87V1127.09H880.04C887.689 1127.09 893.749 1128.72 898.221 1131.98C902.693 1135.22 904.928 1139.62 904.928 1145.18C904.928 1149.15 903.663 1152.3 901.133 1154.62C898.603 1156.95 895.249 1158.51 891.072 1159.3C894.102 1159.65 896.882 1160.57 899.412 1162.04C901.942 1163.48 903.972 1165.42 905.502 1167.86C907.061 1170.3 907.841 1173.22 907.841 1176.6C907.841 1180.19 906.914 1183.37 905.061 1186.13C903.207 1188.87 900.516 1191.01 896.985 1192.57C893.484 1194.1 889.263 1194.87 884.32 1194.87H851.929ZM864.33 1183.84H884.32C887.586 1183.84 890.145 1183.06 891.999 1181.5C893.852 1179.94 894.779 1177.82 894.779 1175.14C894.779 1172 893.852 1169.52 891.999 1167.73C890.145 1165.91 887.586 1164.99 884.32 1164.99H864.33V1183.84ZM864.33 1155.33H880.172C882.643 1155.33 884.761 1154.98 886.527 1154.27C888.321 1153.56 889.689 1152.56 890.631 1151.27C891.601 1149.95 892.087 1148.39 892.087 1146.59C892.087 1143.97 891.013 1141.93 888.865 1140.46C886.718 1138.99 883.776 1138.25 880.04 1138.25H864.33V1155.33Z" fill="#103EB0"/>
<path d="M932.244 1150.39H951.926C960.222 1150.39 966.606 1152.45 971.078 1156.56C975.55 1160.68 977.786 1165.99 977.786 1172.5C977.786 1176.73 976.786 1180.54 974.785 1183.92C972.785 1187.31 969.857 1189.99 966.003 1191.96C962.149 1193.9 957.457 1194.87 951.926 1194.87H922.315V1127.09H935.245V1183.48H951.926C955.721 1183.48 958.84 1182.5 961.281 1180.53C963.723 1178.53 964.944 1175.98 964.944 1172.89C964.944 1169.63 963.723 1166.96 961.281 1164.91C958.84 1162.82 955.721 1161.77 951.926 1161.77H932.244V1150.39ZM987.406 1194.87V1127.09H1000.6V1194.87H987.406Z" fill="#103EB0"/>
<path d="M1047.18 1176.95H1060.68C1060.86 1179.72 1062.11 1181.85 1064.43 1183.35C1066.79 1184.85 1069.83 1185.6 1073.57 1185.6C1077.36 1185.6 1080.6 1184.79 1083.28 1183.17C1085.95 1181.53 1087.29 1178.98 1087.29 1175.54C1087.29 1173.48 1086.78 1171.69 1085.75 1170.16C1084.75 1168.6 1083.32 1167.39 1081.47 1166.54C1079.64 1165.68 1077.48 1165.26 1074.98 1165.26H1063.95V1154.89H1074.98C1078.72 1154.89 1081.51 1154.03 1083.37 1152.33C1085.22 1150.62 1086.15 1148.49 1086.15 1145.93C1086.15 1143.16 1085.14 1140.94 1083.14 1139.27C1081.17 1137.56 1078.42 1136.71 1074.89 1136.71C1071.3 1136.71 1068.32 1137.52 1065.93 1139.13C1063.55 1140.72 1062.3 1142.78 1062.18 1145.31H1048.86C1048.94 1141.52 1050.09 1138.19 1052.3 1135.34C1054.53 1132.46 1057.53 1130.22 1061.3 1128.63C1065.1 1127.01 1069.41 1126.2 1074.23 1126.2C1079.26 1126.2 1083.62 1127.01 1087.29 1128.63C1090.97 1130.25 1093.81 1132.48 1095.81 1135.34C1097.84 1138.19 1098.85 1141.47 1098.85 1145.18C1098.85 1148.92 1097.74 1151.98 1095.5 1154.36C1093.29 1156.71 1090.41 1158.4 1086.85 1159.43V1160.14C1089.47 1160.32 1091.79 1161.11 1093.82 1162.52C1095.85 1163.93 1097.44 1165.8 1098.59 1168.13C1099.74 1170.45 1100.31 1173.08 1100.31 1176.03C1100.31 1180.17 1099.16 1183.76 1096.87 1186.79C1094.6 1189.82 1091.46 1192.16 1087.42 1193.81C1083.42 1195.43 1078.85 1196.24 1073.7 1196.24C1068.7 1196.24 1064.21 1195.46 1060.24 1193.9C1056.3 1192.31 1053.17 1190.07 1050.84 1187.19C1048.55 1184.31 1047.33 1180.89 1047.18 1176.95Z" fill="#103EB0"/>
<path d="M1133.66 1196.37C1129.37 1196.37 1125.48 1195.57 1122.01 1193.99C1118.54 1192.37 1115.79 1190.03 1113.76 1186.97C1111.76 1183.91 1110.76 1180.16 1110.76 1175.72C1110.76 1171.89 1111.49 1168.74 1112.96 1166.27C1114.44 1163.8 1116.42 1161.85 1118.92 1160.4C1121.42 1158.96 1124.22 1157.87 1127.31 1157.14C1130.4 1156.4 1133.54 1155.84 1136.75 1155.46C1140.81 1154.99 1144.11 1154.61 1146.64 1154.31C1149.17 1153.99 1151 1153.48 1152.15 1152.77C1153.3 1152.06 1153.87 1150.92 1153.87 1149.33V1149.02C1153.87 1145.16 1152.78 1142.18 1150.61 1140.06C1148.46 1137.94 1145.25 1136.88 1140.99 1136.88C1136.54 1136.88 1133.04 1137.87 1130.48 1139.84C1127.95 1141.78 1126.2 1143.94 1125.23 1146.33L1112.83 1143.5C1114.3 1139.38 1116.45 1136.06 1119.28 1133.53C1122.13 1130.97 1125.41 1129.12 1129.12 1127.97C1132.82 1126.79 1136.72 1126.2 1140.81 1126.2C1143.52 1126.2 1146.39 1126.53 1149.42 1127.17C1152.48 1127.79 1155.33 1128.94 1157.98 1130.62C1160.65 1132.29 1162.85 1134.69 1164.55 1137.81C1166.26 1140.9 1167.11 1144.91 1167.11 1149.86V1194.87H1154.23V1185.6H1153.7C1152.84 1187.31 1151.56 1188.98 1149.86 1190.63C1148.15 1192.28 1145.96 1193.65 1143.28 1194.74C1140.6 1195.82 1137.4 1196.37 1133.66 1196.37ZM1136.53 1185.78C1140.18 1185.78 1143.3 1185.06 1145.89 1183.62C1148.5 1182.17 1150.49 1180.29 1151.84 1177.97C1153.23 1175.61 1153.92 1173.1 1153.92 1170.42V1161.68C1153.45 1162.15 1152.53 1162.6 1151.18 1163.01C1149.86 1163.39 1148.34 1163.73 1146.64 1164.02C1144.93 1164.29 1143.27 1164.54 1141.65 1164.77C1140.03 1164.98 1138.68 1165.16 1137.59 1165.3C1135.03 1165.63 1132.69 1166.17 1130.57 1166.94C1128.48 1167.7 1126.81 1168.8 1125.54 1170.24C1124.31 1171.66 1123.69 1173.54 1123.69 1175.89C1123.69 1179.16 1124.89 1181.63 1127.31 1183.31C1129.72 1184.95 1132.79 1185.78 1136.53 1185.78Z" fill="#103EB0"/>
<path d="M1184.69 1127.09H1197.62V1183.44H1221.05V1127.09H1233.98V1183.44H1257.41V1127.09H1270.34V1194.87H1184.69V1127.09Z" fill="#103EB0"/>
<path d="M1282.62 1194.87L1282.58 1183.44H1285C1286.89 1183.44 1288.46 1183.04 1289.72 1182.25C1291.02 1181.42 1292.08 1180.04 1292.9 1178.1C1293.73 1176.16 1294.36 1173.48 1294.8 1170.07C1295.24 1166.63 1295.56 1162.3 1295.77 1157.09L1296.96 1127.09H1344.27V1194.87H1331.34V1138.47H1309.19L1308.13 1161.51C1307.86 1167.1 1307.29 1171.98 1306.41 1176.16C1305.55 1180.34 1304.3 1183.82 1302.65 1186.62C1301.01 1189.38 1298.89 1191.46 1296.3 1192.84C1293.71 1194.19 1290.56 1194.87 1286.86 1194.87H1282.62Z" fill="#103EB0"/>
<path d="M1374.79 1176.38L1404.67 1127.09H1418.88V1194.87H1405.95V1145.53L1376.21 1194.87H1361.86V1127.09H1374.79V1176.38Z" fill="#103EB0"/>
<path d="M1515.45 1155.28V1166.71H1478.73V1155.28H1515.45ZM1482.44 1127.09V1194.87H1469.51V1127.09H1482.44ZM1524.67 1127.09V1194.87H1511.78V1127.09H1524.67Z" fill="#103EB0"/>
<path d="M1562.05 1196.37C1557.75 1196.37 1553.87 1195.57 1550.4 1193.99C1546.92 1192.37 1544.17 1190.03 1542.14 1186.97C1540.14 1183.91 1539.14 1180.16 1539.14 1175.72C1539.14 1171.89 1539.88 1168.74 1541.35 1166.27C1542.82 1163.8 1544.81 1161.85 1547.31 1160.4C1549.81 1158.96 1552.6 1157.87 1555.69 1157.14C1558.78 1156.4 1561.93 1155.84 1565.14 1155.46C1569.2 1154.99 1572.49 1154.61 1575.02 1154.31C1577.55 1153.99 1579.39 1153.48 1580.54 1152.77C1581.68 1152.06 1582.26 1150.92 1582.26 1149.33V1149.02C1582.26 1145.16 1581.17 1142.18 1578.99 1140.06C1576.84 1137.94 1573.64 1136.88 1569.37 1136.88C1564.93 1136.88 1561.43 1137.87 1558.87 1139.84C1556.34 1141.78 1554.59 1143.94 1553.62 1146.33L1541.22 1143.5C1542.69 1139.38 1544.84 1136.06 1547.66 1133.53C1550.51 1130.97 1553.79 1129.12 1557.5 1127.97C1561.21 1126.79 1565.11 1126.2 1569.19 1126.2C1571.9 1126.2 1574.77 1126.53 1577.8 1127.17C1580.86 1127.79 1583.71 1128.94 1586.36 1130.62C1589.04 1132.29 1591.23 1134.69 1592.94 1137.81C1594.64 1140.9 1595.5 1144.91 1595.5 1149.86V1194.87H1582.61V1185.6H1582.08C1581.23 1187.31 1579.95 1188.98 1578.24 1190.63C1576.54 1192.28 1574.34 1193.65 1571.67 1194.74C1568.99 1195.82 1565.78 1196.37 1562.05 1196.37ZM1564.91 1185.78C1568.56 1185.78 1571.68 1185.06 1574.27 1183.62C1576.89 1182.17 1578.87 1180.29 1580.23 1177.97C1581.61 1175.61 1582.3 1173.1 1582.3 1170.42V1161.68C1581.83 1162.15 1580.92 1162.6 1579.57 1163.01C1578.24 1163.39 1576.73 1163.73 1575.02 1164.02C1573.31 1164.29 1571.65 1164.54 1570.03 1164.77C1568.42 1164.98 1567.06 1165.16 1565.97 1165.3C1563.41 1165.63 1561.08 1166.17 1558.96 1166.94C1556.87 1167.7 1555.19 1168.8 1553.93 1170.24C1552.69 1171.66 1552.07 1173.54 1552.07 1175.89C1552.07 1179.16 1553.28 1181.63 1555.69 1183.31C1558.1 1184.95 1561.18 1185.78 1564.91 1185.78Z" fill="#103EB0"/>
<path d="M1665.68 1196.37C1661.39 1196.37 1657.5 1195.57 1654.03 1193.99C1650.56 1192.37 1647.81 1190.03 1645.78 1186.97C1643.78 1183.91 1642.78 1180.16 1642.78 1175.72C1642.78 1171.89 1643.52 1168.74 1644.99 1166.27C1646.46 1163.8 1648.44 1161.85 1650.94 1160.4C1653.44 1158.96 1656.24 1157.87 1659.33 1157.14C1662.42 1156.4 1665.57 1155.84 1668.77 1155.46C1672.83 1154.99 1676.13 1154.61 1678.66 1154.31C1681.19 1153.99 1683.03 1153.48 1684.17 1152.77C1685.32 1152.06 1685.89 1150.92 1685.89 1149.33V1149.02C1685.89 1145.16 1684.81 1142.18 1682.63 1140.06C1680.48 1137.94 1677.27 1136.88 1673.01 1136.88C1668.57 1136.88 1665.07 1137.87 1662.51 1139.84C1659.98 1141.78 1658.23 1143.94 1657.25 1146.33L1644.85 1143.5C1646.33 1139.38 1648.47 1136.06 1651.3 1133.53C1654.15 1130.97 1657.43 1129.12 1661.14 1127.97C1664.85 1126.79 1668.74 1126.2 1672.83 1126.2C1675.54 1126.2 1678.41 1126.53 1681.44 1127.17C1684.5 1127.79 1687.35 1128.94 1690 1130.62C1692.68 1132.29 1694.87 1134.69 1696.57 1137.81C1698.28 1140.9 1699.13 1144.91 1699.13 1149.86V1194.87H1686.25V1185.6H1685.72C1684.86 1187.31 1683.59 1188.98 1681.88 1190.63C1680.17 1192.28 1677.98 1193.65 1675.3 1194.74C1672.63 1195.82 1669.42 1196.37 1665.68 1196.37ZM1668.55 1185.78C1672.2 1185.78 1675.32 1185.06 1677.91 1183.62C1680.53 1182.17 1682.51 1180.29 1683.86 1177.97C1685.25 1175.61 1685.94 1173.1 1685.94 1170.42V1161.68C1685.47 1162.15 1684.56 1162.6 1683.2 1163.01C1681.88 1163.39 1680.36 1163.73 1678.66 1164.02C1676.95 1164.29 1675.29 1164.54 1673.67 1164.77C1672.05 1164.98 1670.7 1165.16 1669.61 1165.3C1667.05 1165.63 1664.71 1166.17 1662.59 1166.94C1660.51 1167.7 1658.83 1168.8 1657.56 1170.24C1656.33 1171.66 1655.71 1173.54 1655.71 1175.89C1655.71 1179.16 1656.92 1181.63 1659.33 1183.31C1661.74 1184.95 1664.82 1185.78 1668.55 1185.78Z" fill="#103EB0"/>
<path d="M1742.08 1196.19C1736.61 1196.19 1731.73 1194.8 1727.43 1192C1723.17 1189.18 1719.81 1185.16 1717.37 1179.95C1714.96 1174.72 1713.75 1168.44 1713.75 1161.11C1713.75 1153.78 1714.97 1147.52 1717.41 1142.31C1719.89 1137.1 1723.27 1133.12 1727.56 1130.35C1731.86 1127.59 1736.73 1126.2 1742.17 1126.2C1746.38 1126.2 1749.76 1126.91 1752.32 1128.32C1754.91 1129.7 1756.91 1131.32 1758.32 1133.18C1759.76 1135.03 1760.88 1136.66 1761.68 1138.07H1762.47V1104.49H1775.66V1194.87H1762.78V1184.32H1761.68C1760.88 1185.76 1759.73 1187.41 1758.23 1189.26C1756.76 1191.12 1754.73 1192.74 1752.14 1194.12C1749.55 1195.5 1746.2 1196.19 1742.08 1196.19ZM1744.99 1184.94C1748.79 1184.94 1752 1183.94 1754.61 1181.94C1757.26 1179.91 1759.26 1177.1 1760.62 1173.51C1762 1169.92 1762.69 1165.74 1762.69 1160.98C1762.69 1156.27 1762.01 1152.15 1760.66 1148.62C1759.31 1145.09 1757.32 1142.34 1754.7 1140.37C1752.08 1138.4 1748.85 1137.41 1744.99 1137.41C1741.02 1137.41 1737.71 1138.44 1735.07 1140.5C1732.42 1142.56 1730.42 1145.37 1729.06 1148.93C1727.74 1152.49 1727.08 1156.51 1727.08 1160.98C1727.08 1165.51 1727.75 1169.58 1729.11 1173.2C1730.46 1176.82 1732.46 1179.69 1735.11 1181.81C1737.79 1183.9 1741.08 1184.94 1744.99 1184.94Z" fill="#103EB0"/>
<path d="M1794.5 1194.87V1127.09H1807.16V1138.12H1808C1809.41 1134.38 1811.72 1131.47 1814.93 1129.38C1818.14 1127.26 1821.97 1126.2 1826.45 1126.2C1830.98 1126.2 1834.77 1127.26 1837.83 1129.38C1840.92 1131.5 1843.2 1134.41 1844.67 1138.12H1845.38C1847 1134.5 1849.57 1131.62 1853.1 1129.47C1856.63 1127.29 1860.84 1126.2 1865.72 1126.2C1871.87 1126.2 1876.89 1128.13 1880.77 1131.98C1884.68 1135.84 1886.64 1141.65 1886.64 1149.42V1194.87H1873.44V1150.65C1873.44 1146.06 1872.19 1142.74 1869.69 1140.68C1867.19 1138.62 1864.21 1137.59 1860.73 1137.59C1856.44 1137.59 1853.1 1138.91 1850.72 1141.56C1848.33 1144.18 1847.14 1147.55 1847.14 1151.67V1194.87H1833.99V1149.81C1833.99 1146.14 1832.85 1143.18 1830.55 1140.94C1828.26 1138.71 1825.27 1137.59 1821.59 1137.59C1819.09 1137.59 1816.78 1138.25 1814.66 1139.57C1812.58 1140.87 1810.88 1142.68 1809.59 1145C1808.32 1147.33 1807.69 1150.02 1807.69 1153.08V1194.87H1794.5Z" fill="#103EB0"/>
<path d="M1913.02 1195.71C1910.6 1195.71 1908.53 1194.85 1906.79 1193.15C1905.06 1191.41 1904.19 1189.32 1904.19 1186.88C1904.19 1184.47 1905.06 1182.41 1906.79 1180.7C1908.53 1178.97 1910.6 1178.1 1913.02 1178.1C1915.43 1178.1 1917.5 1178.97 1919.24 1180.7C1920.97 1182.41 1921.84 1184.47 1921.84 1186.88C1921.84 1188.5 1921.43 1189.99 1920.61 1191.34C1919.81 1192.66 1918.75 1193.72 1917.43 1194.52C1916.11 1195.31 1914.63 1195.71 1913.02 1195.71Z" fill="#103EB0"/>
<path d="M1971.78 1127.09V1137.68H1933.47V1127.09H1971.78ZM1943.97 1194.87V1119.23C1943.97 1114.99 1944.9 1111.48 1946.75 1108.68C1948.61 1105.86 1951.06 1103.76 1954.12 1102.37C1957.18 1100.96 1960.51 1100.26 1964.1 1100.26C1966.74 1100.26 1969.01 1100.48 1970.89 1100.92C1972.78 1101.33 1974.17 1101.71 1975.08 1102.07L1972 1112.74C1971.38 1112.57 1970.58 1112.36 1969.61 1112.13C1968.64 1111.86 1967.47 1111.73 1966.08 1111.73C1962.88 1111.73 1960.58 1112.52 1959.2 1114.11C1957.84 1115.7 1957.17 1118 1957.17 1121V1194.87H1943.97Z" fill="#103EB0"/>
<path d="M1985.39 1194.87V1127.09H1998.58V1194.87H1985.39ZM1992.05 1116.63C1989.76 1116.63 1987.79 1115.86 1986.14 1114.33C1984.52 1112.77 1983.71 1110.92 1983.71 1108.77C1983.71 1106.6 1984.52 1104.74 1986.14 1103.21C1987.79 1101.65 1989.76 1100.87 1992.05 1100.87C1994.35 1100.87 1996.3 1101.65 1997.92 1103.21C1999.57 1104.74 2000.39 1106.6 2000.39 1108.77C2000.39 1110.92 1999.57 1112.77 1997.92 1114.33C1996.3 1115.86 1994.35 1116.63 1992.05 1116.63Z" fill="#103EB0"/>
<path d="M2016.33 1194.87V1127.09H2029.09V1137.85H2029.79C2031.03 1134.21 2033.21 1131.34 2036.32 1129.25C2039.47 1127.13 2043.03 1126.07 2047 1126.07C2047.83 1126.07 2048.8 1126.1 2049.92 1126.16C2051.06 1126.22 2051.96 1126.29 2052.61 1126.38V1139C2052.08 1138.85 2051.14 1138.69 2049.78 1138.52C2048.43 1138.31 2047.08 1138.21 2045.72 1138.21C2042.61 1138.21 2039.83 1138.87 2037.38 1140.19C2034.97 1141.49 2033.06 1143.3 2031.65 1145.62C2030.24 1147.92 2029.53 1150.53 2029.53 1153.48V1194.87H2016.33Z" fill="#103EB0"/>
<path d="M2114.82 1143.63L2102.86 1145.75C2102.36 1144.22 2101.57 1142.77 2100.48 1141.38C2099.42 1140 2097.98 1138.87 2096.15 1137.99C2094.33 1137.1 2092.05 1136.66 2089.31 1136.66C2085.58 1136.66 2082.46 1137.5 2079.96 1139.18C2077.46 1140.83 2076.21 1142.96 2076.21 1145.58C2076.21 1147.84 2077.05 1149.67 2078.72 1151.05C2080.4 1152.43 2083.11 1153.56 2086.84 1154.45L2097.61 1156.92C2103.85 1158.36 2108.49 1160.58 2111.55 1163.58C2114.61 1166.58 2116.14 1170.48 2116.14 1175.28C2116.14 1179.34 2114.97 1182.95 2112.61 1186.13C2110.29 1189.28 2107.04 1191.75 2102.86 1193.54C2098.71 1195.34 2093.9 1196.24 2088.43 1196.24C2080.84 1196.24 2074.65 1194.62 2069.85 1191.38C2065.06 1188.12 2062.11 1183.48 2061.03 1177.48L2073.78 1175.54C2074.57 1178.86 2076.21 1181.38 2078.68 1183.09C2081.15 1184.76 2084.37 1185.6 2088.34 1185.6C2092.67 1185.6 2096.12 1184.7 2098.71 1182.91C2101.3 1181.09 2102.6 1178.86 2102.6 1176.25C2102.6 1174.13 2101.8 1172.35 2100.21 1170.91C2098.65 1169.47 2096.26 1168.38 2093.02 1167.64L2081.55 1165.13C2075.22 1163.68 2070.54 1161.39 2067.51 1158.24C2064.51 1155.09 2063.01 1151.11 2063.01 1146.28C2063.01 1142.28 2064.13 1138.78 2066.37 1135.78C2068.6 1132.78 2071.69 1130.44 2075.63 1128.76C2079.58 1127.06 2084.09 1126.2 2089.18 1126.2C2096.51 1126.2 2102.27 1127.79 2106.48 1130.97C2110.69 1134.12 2113.47 1138.34 2114.82 1143.63Z" fill="#103EB0"/>
<path d="M2162.29 1127.09V1137.68H2125.27V1127.09H2162.29ZM2135.2 1110.85H2148.39V1174.97C2148.39 1177.53 2148.77 1179.45 2149.54 1180.75C2150.3 1182.01 2151.29 1182.88 2152.5 1183.35C2153.73 1183.79 2155.07 1184.01 2156.51 1184.01C2157.57 1184.01 2158.5 1183.94 2159.29 1183.79C2160.09 1183.65 2160.7 1183.53 2161.14 1183.44L2163.53 1194.34C2162.76 1194.63 2161.67 1194.93 2160.26 1195.22C2158.85 1195.55 2157.08 1195.72 2154.97 1195.75C2151.5 1195.81 2148.26 1195.19 2145.26 1193.9C2142.26 1192.6 2139.83 1190.6 2137.98 1187.9C2136.12 1185.19 2135.2 1181.79 2135.2 1177.7V1110.85Z" fill="#103EB0"/>
<path d="M2191.54 1104.49V1194.87H2178.34V1104.49H2191.54Z" fill="#103EB0"/>
<path d="M2209.29 1194.87V1127.09H2222.48V1194.87H2209.29ZM2215.95 1116.63C2213.66 1116.63 2211.69 1115.86 2210.04 1114.33C2208.42 1112.77 2207.61 1110.92 2207.61 1108.77C2207.61 1106.6 2208.42 1104.74 2210.04 1103.21C2211.69 1101.65 2213.66 1100.87 2215.95 1100.87C2218.25 1100.87 2220.2 1101.65 2221.82 1103.21C2223.47 1104.74 2224.29 1106.6 2224.29 1108.77C2224.29 1110.92 2223.47 1112.77 2221.82 1114.33C2220.2 1115.86 2218.25 1116.63 2215.95 1116.63Z" fill="#103EB0"/>
<path d="M2253.43 1154.62V1194.87H2240.24V1127.09H2252.9V1138.12H2253.74C2255.3 1134.53 2257.74 1131.65 2261.06 1129.47C2264.42 1127.29 2268.64 1126.2 2273.73 1126.2C2278.35 1126.2 2282.39 1127.17 2285.86 1129.12C2289.34 1131.03 2292.03 1133.88 2293.94 1137.68C2295.85 1141.47 2296.81 1146.16 2296.81 1151.75V1194.87H2283.61V1153.34C2283.61 1148.43 2282.33 1144.59 2279.78 1141.83C2277.22 1139.03 2273.7 1137.63 2269.23 1137.63C2266.17 1137.63 2263.45 1138.3 2261.06 1139.62C2258.71 1140.94 2256.84 1142.88 2255.46 1145.44C2254.11 1147.97 2253.43 1151.03 2253.43 1154.62Z" fill="#103EB0"/>
<path d="M2343.72 1196.24C2337.04 1196.24 2331.29 1194.81 2326.46 1191.96C2321.67 1189.07 2317.96 1185.03 2315.34 1179.82C2312.75 1174.58 2311.46 1168.45 2311.46 1161.42C2311.46 1154.48 2312.75 1148.36 2315.34 1143.06C2317.96 1137.77 2321.61 1133.63 2326.29 1130.66C2330.99 1127.69 2336.5 1126.2 2342.79 1126.2C2346.62 1126.2 2350.32 1126.84 2353.91 1128.1C2357.5 1129.37 2360.72 1131.35 2363.58 1134.06C2366.43 1136.77 2368.68 1140.28 2370.33 1144.61C2371.98 1148.9 2372.8 1154.12 2372.8 1160.27V1164.95H2318.92V1155.06H2359.87C2359.87 1151.59 2359.16 1148.52 2357.75 1145.84C2356.34 1143.13 2354.35 1141 2351.79 1139.44C2349.26 1137.88 2346.29 1137.1 2342.88 1137.1C2339.17 1137.1 2335.94 1138.02 2333.17 1139.84C2330.44 1141.63 2328.32 1143.99 2326.82 1146.9C2325.35 1149.78 2324.61 1152.92 2324.61 1156.3V1164.02C2324.61 1168.55 2325.4 1172.41 2326.99 1175.58C2328.61 1178.76 2330.86 1181.19 2333.75 1182.87C2336.63 1184.51 2340 1185.34 2343.85 1185.34C2346.35 1185.34 2348.63 1184.98 2350.69 1184.28C2352.75 1183.54 2354.53 1182.45 2356.03 1181.01C2357.53 1179.57 2358.68 1177.79 2359.47 1175.67L2371.96 1177.92C2370.96 1181.6 2369.17 1184.82 2366.58 1187.59C2364.02 1190.32 2360.8 1192.46 2356.91 1193.99C2353.06 1195.49 2348.66 1196.24 2343.72 1196.24Z" fill="#103EB0"/>
<path d="M2396.13 1195.71C2393.72 1195.71 2391.65 1194.85 2389.91 1193.15C2388.17 1191.41 2387.31 1189.32 2387.31 1186.88C2387.31 1184.47 2388.17 1182.41 2389.91 1180.7C2391.65 1178.97 2393.72 1178.1 2396.13 1178.1C2398.55 1178.1 2400.62 1178.97 2402.36 1180.7C2404.09 1182.41 2404.96 1184.47 2404.96 1186.88C2404.96 1188.5 2404.55 1189.99 2403.72 1191.34C2402.93 1192.66 2401.87 1193.72 2400.55 1194.52C2399.22 1195.31 2397.75 1195.71 2396.13 1195.71Z" fill="#103EB0"/>
<path d="M2435.83 1154.62V1194.87H2422.63V1104.49H2435.65V1138.12H2436.49C2438.08 1134.47 2440.5 1131.57 2443.77 1129.43C2447.04 1127.28 2451.3 1126.2 2456.57 1126.2C2461.22 1126.2 2465.28 1127.16 2468.75 1129.07C2472.25 1130.98 2474.96 1133.84 2476.87 1137.63C2478.81 1141.4 2479.78 1146.11 2479.78 1151.75V1194.87H2466.59V1153.34C2466.59 1148.37 2465.31 1144.52 2462.75 1141.78C2460.19 1139.02 2456.63 1137.63 2452.07 1137.63C2448.95 1137.63 2446.15 1138.3 2443.68 1139.62C2441.24 1140.94 2439.31 1142.88 2437.9 1145.44C2436.52 1147.97 2435.83 1151.03 2435.83 1154.62Z" fill="#103EB0"/>
<path d="M2526.6 1196.24C2519.92 1196.24 2514.17 1194.81 2509.35 1191.96C2504.55 1189.07 2500.84 1185.03 2498.23 1179.82C2495.64 1174.58 2494.34 1168.45 2494.34 1161.42C2494.34 1154.48 2495.64 1148.36 2498.23 1143.06C2500.84 1137.77 2504.49 1133.63 2509.17 1130.66C2513.88 1127.69 2519.38 1126.2 2525.67 1126.2C2529.5 1126.2 2533.21 1126.84 2536.79 1128.1C2540.38 1129.37 2543.61 1131.35 2546.46 1134.06C2549.31 1136.77 2551.56 1140.28 2553.21 1144.61C2554.86 1148.9 2555.68 1154.12 2555.68 1160.27V1164.95H2501.8V1155.06H2542.75C2542.75 1151.59 2542.05 1148.52 2540.63 1145.84C2539.22 1143.13 2537.24 1141 2534.68 1139.44C2532.15 1137.88 2529.18 1137.1 2525.76 1137.1C2522.06 1137.1 2518.82 1138.02 2516.05 1139.84C2513.32 1141.63 2511.2 1143.99 2509.7 1146.9C2508.23 1149.78 2507.49 1152.92 2507.49 1156.3V1164.02C2507.49 1168.55 2508.29 1172.41 2509.88 1175.58C2511.49 1178.76 2513.74 1181.19 2516.63 1182.87C2519.51 1184.51 2522.88 1185.34 2526.73 1185.34C2529.23 1185.34 2531.51 1184.98 2533.57 1184.28C2535.63 1183.54 2537.41 1182.45 2538.91 1181.01C2540.41 1179.57 2541.56 1177.79 2542.36 1175.67L2554.84 1177.92C2553.84 1181.6 2552.05 1184.82 2549.46 1187.59C2546.9 1190.32 2543.68 1192.46 2539.8 1193.99C2535.94 1195.49 2531.54 1196.24 2526.6 1196.24Z" fill="#103EB0"/>
<path d="M2583.52 1104.49V1194.87H2570.32V1104.49H2583.52Z" fill="#103EB0"/>
<path d="M2601.27 1220.29V1127.09H2614.15V1138.07H2615.26C2616.02 1136.66 2617.12 1135.03 2618.57 1133.18C2620.01 1131.32 2622.01 1129.7 2624.57 1128.32C2627.13 1126.91 2630.51 1126.2 2634.72 1126.2C2640.19 1126.2 2645.07 1127.59 2649.37 1130.35C2653.66 1133.12 2657.03 1137.1 2659.47 1142.31C2661.95 1147.52 2663.18 1153.78 2663.18 1161.11C2663.18 1168.44 2661.96 1174.72 2659.52 1179.95C2657.08 1185.16 2653.72 1189.18 2649.46 1192C2645.19 1194.8 2640.32 1196.19 2634.85 1196.19C2630.73 1196.19 2627.36 1195.5 2624.74 1194.12C2622.16 1192.74 2620.13 1191.12 2618.65 1189.26C2617.18 1187.41 2616.05 1185.76 2615.26 1184.32H2614.46V1220.29H2601.27ZM2614.2 1160.98C2614.2 1165.74 2614.89 1169.92 2616.27 1173.51C2617.65 1177.1 2619.65 1179.91 2622.27 1181.94C2624.89 1183.94 2628.1 1184.94 2631.89 1184.94C2635.84 1184.94 2639.13 1183.9 2641.78 1181.81C2644.43 1179.69 2646.43 1176.82 2647.78 1173.2C2649.16 1169.58 2649.85 1165.51 2649.85 1160.98C2649.85 1156.51 2649.18 1152.49 2647.82 1148.93C2646.5 1145.37 2644.5 1142.56 2641.82 1140.5C2639.17 1138.44 2635.86 1137.41 2631.89 1137.41C2628.07 1137.41 2624.83 1138.4 2622.18 1140.37C2619.57 1142.34 2617.58 1145.09 2616.23 1148.62C2614.87 1152.15 2614.2 1156.27 2614.2 1160.98Z" fill="#103EB0"/>
</svg>
